<?xml version="1.0" encoding="UTF-8" standalone="no"?>
<svg
   xmlns:dc="http://purl.org/dc/elements/1.1/"
   xmlns:cc="http://creativecommons.org/ns#"
   xmlns:rdf="http://www.w3.org/1999/02/22-rdf-syntax-ns#"
   xmlns:svg="http://www.w3.org/2000/svg"
   xmlns="http://www.w3.org/2000/svg"
   viewBox="0 0 181.41333 39.746666"
   height="39.746666"
   width="181.41333"
   xml:space="preserve"
   id="svg2"
   version="1.1"><metadata
     id="metadata8"><rdf:RDF><cc:Work
         rdf:about=""><dc:format>image/svg+xml</dc:format><dc:type
           rdf:resource="http://purl.org/dc/dcmitype/StillImage" /></cc:Work></rdf:RDF></metadata><defs
     id="defs6"><clipPath
       id="clipPath20"
       clipPathUnits="userSpaceOnUse"><path
         id="path18"
         d="M 0,0 H 1360.62 V 298 H 0 Z" /></clipPath></defs><g
     transform="matrix(1.3333333,0,0,-1.3333333,0,39.746667)"
     id="g10"><g
       transform="scale(0.1)"
       id="g12"><g
         id="g14"><g
           clip-path="url(#clipPath20)"
           id="g16"><path
             id="path22"
             style="fill:#13161b;fill-opacity:1;fill-rule:nonzero;stroke:none"
             d="m 1021.4,13.7188 c 0,-7.48833 5.41,-11.2188 10.81,-11.2188 5.4,0 10.81,3.73047 10.81,11.2188 V 286.84 c 0,7.484 -5.41,11.226 -10.81,11.226 -5.4,0 -10.81,-3.742 -10.81,-11.226 V 13.7188" /><path
             id="path24"
             style="fill:#13161b;fill-opacity:1;fill-rule:nonzero;stroke:none"
             d="m 1210.55,25.7812 h -58.62 c -8.3,0 -10.8,3.3204 -10.8,12.461 V 262.73 c 0,9.145 2.5,12.473 10.8,12.473 h 55.72 c 88.54,0 130.53,-51.961 130.53,-124.715 0,-74.8239 -46.56,-124.7068 -127.63,-124.7068 z m 1.25,270.2108 h -66.51 c -17.46,0 -25.78,-9.152 -25.78,-27.859 V 32.8398 c 0,-18.6992 8.32,-27.85152 25.78,-27.85152 h 62.77 c 95.2,0 152.56,60.69532 152.56,147.57772 0,87.301 -56.11,143.426 -148.82,143.426" /><path
             id="path26"
             style="fill:#13161b;fill-opacity:1;fill-rule:nonzero;stroke:none"
             d="m 20.7852,262.73 c 0,7.485 2.082,9.145 4.9921,9.145 2.9102,0 5.3985,-4.57 6.6485,-6.234 L 193.305,21.6211 c 3.742,-5.4102 9.98,-14.55079 24.527,-14.55079 15.801,0 24.109,11.21879 24.109,28.26169 v 251.094 c 0,7.484 -4.984,11.226 -10.386,11.226 -5.407,0 -10.399,-3.742 -10.399,-11.226 V 38.2422 c 0,-7.4805 -2.074,-9.1406 -4.984,-9.1406 -2.91,0 -5.406,4.5703 -6.652,6.2304 L 48.6367,279.359 C 44.8984,284.766 38.6602,293.91 24.1094,293.91 8.31641,293.91 0,282.684 0,265.641 V 13.7188 C 0,6.23047 4.98828,2.5 10.3906,2.5 c 5.4063,0 10.3946,3.73047 10.3946,11.2188 V 262.73" /><path
             id="path28"
             style="fill:#13161b;fill-opacity:1;fill-rule:nonzero;stroke:none"
             d="m 543.754,13.7188 c 0,-7.48833 4.992,-11.2188 10.391,-11.2188 5.406,0 10.39,3.73047 10.39,11.2188 V 264.809 c 0,7.484 1.664,9.144 4.574,9.144 2.911,0 5.825,-4.57 7.075,-6.234 l 89.793,-126.375 c 2.492,-3.742 5.402,-5.403 9.14,-5.403 3.75,0 6.66,1.661 9.141,5.403 l 90.629,126.375 c 1.242,1.664 4.152,6.234 7.062,6.234 2.91,0 4.571,-1.66 4.571,-9.144 V 13.7188 c 0,-7.48833 5,-11.2188 10.398,-11.2188 5.402,0 10.391,3.73047 10.391,11.2188 V 268.551 c 0,17.043 -7.899,27.441 -23.692,27.441 -14.551,0 -20.379,-8.316 -24.949,-14.551 l -83.133,-118.48 -83.14,118.48 c -4.165,5.821 -9.985,14.551 -24.528,14.551 -15.801,0 -24.113,-11.226 -24.113,-28.273 V 13.7188" /><path
             id="path30"
             style="fill:#13161b;fill-opacity:1;fill-rule:nonzero;stroke:none"
             d="m 409.871,157.996 c 4.078,-4.074 11.051,-3.871 14.84,-0.082 4.355,4.356 3.105,10.996 -1.066,15.176 l -81.926,87.148 c -4.574,4.985 -6.239,7.067 -6.239,9.977 0,2.91 2.079,4.988 6.653,4.988 H 469.34 c 7.48,0.418 11.226,4.988 11.226,10.391 0,5.406 -3.746,10.398 -11.226,10.398 H 336.312 c -14.55,0 -24.527,-7.488 -24.527,-20.371 0,-12.059 8.727,-21.621 16.211,-29.519 l 81.875,-88.106" /><path
             id="path32"
             style="fill:#13161b;fill-opacity:1;fill-rule:nonzero;stroke:none"
             d="m 493.949,45.3711 c 3.613,6.1797 2.031,12.0312 -2.898,15.2734 -4.524,2.9571 -10.906,2.3164 -14.856,-3.6718 -4.879,-6.25 -26.136,-36.1915 -73.699,-36.1915 -37.414,0 -78.156,22.129 -78.156,69.4336 0,41.6802 40.656,59.8902 47.984,63.3012 7,3.25 8.235,9.281 5.61,14.234 -2.528,4.777 -7.657,7.316 -14.672,4.324 -10.965,-3.73 -60.621,-26.453 -60.621,-82.6912 C 302.641,34.0898 347.117,0 399.918,0 c 48.48,0 80.887,22.8594 94.031,45.3711" /></g></g></g></g></svg>