<?xml version="1.0" encoding="utf-8"?>
<!-- Generator: Adobe Illustrator 18.0.0, SVG Export Plug-In . SVG Version: 6.00 Build 0)  -->
<!DOCTYPE svg PUBLIC "-//W3C//DTD SVG 1.1//EN" "http://www.w3.org/Graphics/SVG/1.1/DTD/svg11.dtd" [
	<!ENTITY ns_extend "http://ns.adobe.com/Extensibility/1.0/">
	<!ENTITY ns_ai "http://ns.adobe.com/AdobeIllustrator/10.0/">
	<!ENTITY ns_graphs "http://ns.adobe.com/Graphs/1.0/">
	<!ENTITY ns_vars "http://ns.adobe.com/Variables/1.0/">
	<!ENTITY ns_imrep "http://ns.adobe.com/ImageReplacement/1.0/">
	<!ENTITY ns_sfw "http://ns.adobe.com/SaveForWeb/1.0/">
	<!ENTITY ns_custom "http://ns.adobe.com/GenericCustomNamespace/1.0/">
	<!ENTITY ns_adobe_xpath "http://ns.adobe.com/XPath/1.0/">
]>
<svg version="1.1" id="Lag_1" xmlns:x="&ns_extend;" xmlns:i="&ns_ai;" xmlns:graph="&ns_graphs;"
	 xmlns="http://www.w3.org/2000/svg" xmlns:xlink="http://www.w3.org/1999/xlink" x="0px" y="0px" width="34.1px" height="32.8px"
	 viewBox="0 0 34.1 32.8" enable-background="new 0 0 34.1 32.8" xml:space="preserve">
<metadata>
	<sfw  xmlns="&ns_sfw;">
		<slices></slices>
		<sliceSourceBounds  height="32.2" width="34" x="42" y="74.8" bottomLeftOrigin="true"></sliceSourceBounds>
		<optimizationSettings>
			<targetSettings  fileFormat="PNG24Format" targetSettingsID="0">
				<PNG24Format  transparency="true" interlaced="false" noMatteColor="false" matteColor="#FFFFFF" filtered="false">
					</PNG24Format>
			</targetSettings>
		</optimizationSettings>
	</sfw>
</metadata>
<rect x="0" y="3.7" fill="#395F77" width="15.9" height="2.8"/>
<rect x="0" y="9.5" fill="#395F77" width="15.9" height="2.8"/>
<rect x="0" y="15.2" fill="#395F77" width="15.9" height="2.8"/>
<rect x="0" y="20.9" fill="#395F77" width="15.9" height="2.8"/>
<rect x="0" y="26" fill="#395F77" width="15.9" height="2.8"/>
<polygon fill="#395F77" points="32.4,9.1 27.2,3 22,9.1 20.4,7.7 27.2,0 34,7.7 "/>
<rect x="26.1" y="2.2" fill="#395F77" width="2.2" height="11.5"/>
<polygon fill="#395F77" points="27.2,32.2 20.4,24.5 22,23.1 27.2,29.2 32.4,23.1 34,24.5 "/>
<rect x="26" y="18.5" fill="#395F77" width="2.2" height="11.5"/>
</svg>
