<?xml version="1.0" encoding="utf-8"?>
<!-- Generator: Adobe Illustrator 18.0.0, SVG Export Plug-In . SVG Version: 6.00 Build 0)  -->
<!DOCTYPE svg PUBLIC "-//W3C//DTD SVG 1.1//EN" "http://www.w3.org/Graphics/SVG/1.1/DTD/svg11.dtd" [
	<!ENTITY ns_extend "http://ns.adobe.com/Extensibility/1.0/">
	<!ENTITY ns_ai "http://ns.adobe.com/AdobeIllustrator/10.0/">
	<!ENTITY ns_graphs "http://ns.adobe.com/Graphs/1.0/">
	<!ENTITY ns_vars "http://ns.adobe.com/Variables/1.0/">
	<!ENTITY ns_imrep "http://ns.adobe.com/ImageReplacement/1.0/">
	<!ENTITY ns_sfw "http://ns.adobe.com/SaveForWeb/1.0/">
	<!ENTITY ns_custom "http://ns.adobe.com/GenericCustomNamespace/1.0/">
	<!ENTITY ns_adobe_xpath "http://ns.adobe.com/XPath/1.0/">
]>
<svg version="1.1" id="Lag_1" xmlns:x="&ns_extend;" xmlns:i="&ns_ai;" xmlns:graph="&ns_graphs;"
	 xmlns="http://www.w3.org/2000/svg" xmlns:xlink="http://www.w3.org/1999/xlink" x="0px" y="0px" width="23.3px" height="23.2px"
	 viewBox="0 0 23.3 23.2" enable-background="new 0 0 23.3 23.2" xml:space="preserve">
<metadata>
	<sfw  xmlns="&ns_sfw;">
		<slices></slices>
		<sliceSourceBounds  width="173.5" height="41.7" x="-34" y="-42" bottomLeftOrigin="true"></sliceSourceBounds>
		<optimizationSettings>
			<targetSettings  fileFormat="PNG24Format" targetSettingsID="0">
				<PNG24Format  transparency="true" interlaced="false" filtered="false" matteColor="#FFFFFF" noMatteColor="false">
					</PNG24Format>
			</targetSettings>
		</optimizationSettings>
	</sfw>
</metadata>
<g>
	<path fill="#14364C" d="M-29.2,0.4l9.8,17l9.8-17H-29.2z"/>
</g>
<g>
	<g>
		<g>
			<path fill="#14364C" d="M-26.3,20.9h-6.9c-0.4,0-0.7,0.3-0.7,0.7V23c0,0.4,0.3,0.7,0.7,0.7h6.9c0.4,0,0.7-0.3,0.7-0.7v-1.4
				C-25.6,21.3-26,20.9-26.3,20.9z"/>
			<path fill="#14364C" d="M-26.3,25.1h-6.9c-0.4,0-0.7,0.3-0.7,0.7v1.4c0,0.4,0.3,0.7,0.7,0.7h6.9c0.4,0,0.7-0.3,0.7-0.7v-1.4
				C-25.6,25.4-26,25.1-26.3,25.1z"/>
			<path fill="#14364C" d="M-26.3,29.3h-6.9c-0.4,0-0.7,0.3-0.7,0.7v1.4c0,0.4,0.3,0.7,0.7,0.7h6.9c0.4,0,0.7-0.3,0.7-0.7V30
				C-25.6,29.6-26,29.3-26.3,29.3z"/>
			<path fill="#14364C" d="M-26.3,33.4h-6.9c-0.4,0-0.7,0.3-0.7,0.7v1.4c0,0.4,0.3,0.7,0.7,0.7h6.9c0.4,0,0.7-0.3,0.7-0.7v-1.4
				C-25.6,33.7-26,33.4-26.3,33.4z"/>
			<path fill="#14364C" d="M-26.3,37.6h-6.9c-0.4,0-0.7,0.3-0.7,0.7v1.4c0,0.4,0.3,0.7,0.7,0.7h6.9c0.4,0,0.7-0.3,0.7-0.7v-1.4
				C-25.6,37.9-26,37.6-26.3,37.6z"/>
		</g>
	</g>
	<g>
		<path fill="#14364C" d="M-22.4,37.2l4.1,4.1c0.5,0.5,1.4,0.5,2,0l4.2-4.2c0.5-0.5,0.5-1.4,0-1.9c-0.5-0.5-1.3-0.6-1.9-0.1
			l-1.8,1.9v-4.3c0-0.8-0.6-1.4-1.4-1.4c-0.8,0-1.4,0.6-1.4,1.4V37l-1.7-1.7c-0.5-0.5-1.5-0.6-2.1-0.1C-23,35.7-23,36.7-22.4,37.2z"
			/>
	</g>
	<g>
		<path fill="#14364C" d="M-12.2,24.1l-4.1-4.1c-0.5-0.5-1.4-0.5-2,0l-4.2,4.2c-0.5,0.5-0.5,1.4,0,1.9c0.5,0.5,1.3,0.6,1.9,0.1
			l1.8-1.9v4.3c0,0.8,0.6,1.4,1.4,1.4c0.8,0,1.4-0.6,1.4-1.4v-4.3l1.7,1.7c0.5,0.5,1.5,0.6,2.1,0.1C-11.6,25.6-11.7,24.6-12.2,24.1z
			"/>
	</g>
</g>
<g>
	<g>
		<g>
			<path fill="#14364C" d="M118.6,2.4h-10c-0.6,0-1,0.4-1,1v2c0,0.6,0.4,1,1,1h10c0.6,0,1-0.4,1-1v-2C119.6,2.9,119.1,2.4,118.6,2.4
				z"/>
			<path fill="#14364C" d="M118.6,8.4h-10c-0.6,0-1,0.4-1,1v2c0,0.6,0.4,1,1,1h10c0.6,0,1-0.4,1-1v-2C119.6,8.9,119.1,8.4,118.6,8.4
				z"/>
			<path fill="#14364C" d="M118.6,14.4h-10c-0.6,0-1,0.4-1,1v2c0,0.6,0.4,1,1,1h10c0.6,0,1-0.4,1-1v-2
				C119.6,14.9,119.1,14.4,118.6,14.4z"/>
			<path fill="#14364C" d="M118.6,20.4h-10c-0.6,0-1,0.4-1,1v2c0,0.6,0.4,1,1,1h10c0.6,0,1-0.4,1-1v-2
				C119.6,20.9,119.1,20.4,118.6,20.4z"/>
			<path fill="#14364C" d="M118.6,26.4h-10c-0.6,0-1,0.4-1,1v2c0,0.6,0.4,1,1,1h10c0.6,0,1-0.4,1-1v-2
				C119.6,26.9,119.1,26.4,118.6,26.4z"/>
		</g>
	</g>
	<g>
		<path fill="#14364C" d="M124.2,25.9l6,5.9c0.8,0.8,2,0.8,2.8,0l6-6c0.8-0.8,0.7-2-0.1-2.8c-0.8-0.8-1.9-0.9-2.7-0.1l-2.6,2.7v-6.3
			c0-1.1-0.9-2-2-2s-2,0.9-2,2v6.2l-2.5-2.5c-0.8-0.8-2.2-0.9-3-0.1C123.3,23.7,123.5,25.1,124.2,25.9z"/>
	</g>
	<g>
		<path fill="#14364C" d="M138.9,7L133,1c-0.8-0.8-2-0.8-2.8,0l-6,6c-0.8,0.8-0.7,2,0.1,2.8s1.9,0.9,2.7,0.1l2.6-2.7v6.2
			c0,1.1,0.9,2,2,2c1.1,0,2-0.9,2-2V7.3l2.5,2.5c0.8,0.8,2.2,0.9,3,0.1C139.8,9.1,139.7,7.8,138.9,7z"/>
	</g>
</g>
<rect x="38" y="3.7" fill="#14364C" width="15.9" height="2.8"/>
<rect x="38" y="9.5" fill="#14364C" width="15.9" height="2.8"/>
<rect x="38" y="15.2" fill="#14364C" width="15.9" height="2.8"/>
<rect x="38" y="20.9" fill="#14364C" width="15.9" height="2.8"/>
<rect x="38" y="26" fill="#14364C" width="15.9" height="2.8"/>
<polyline fill="none" stroke="#14364C" stroke-width="2" stroke-miterlimit="10" points="59.2,8.4 65.2,1.5 71.2,8.4 "/>
<rect x="64.1" y="2.2" fill="#14364C" width="2.2" height="11.5"/>
<polyline fill="none" stroke="#14364C" stroke-width="2" stroke-miterlimit="10" points="71.2,23.8 65.2,30.7 59.2,23.8 "/>
<rect x="64" y="18.5" fill="#14364C" width="2.2" height="11.5"/>
<rect x="8.2" y="-1.1" transform="matrix(0.7071 -0.7071 0.7071 0.7071 -5.0231 11.5081)" fill="#14364C" width="6.4" height="25.8"/>
<rect x="8.2" y="-1.1" transform="matrix(0.7071 0.7071 -0.7071 0.7071 11.6894 -4.5856)" fill="#14364C" width="6.4" height="25.8"/>
</svg>
