<?xml version="1.0" encoding="utf-8"?>
<svg version="1.1"  xmlns="http://www.w3.org/2000/svg" xmlns:xlink="http://www.w3.org/1999/xlink" x="0px" y="0px" width="40px" height="40px"
	 viewBox="0 0 40 40" enable-background="new 0 0 40 40" xml:space="preserve">
<g id="Lag_1">
	<g>
		<path fill="#395F77" d="M27.3,19.8c0.2,0.1,0.4,0,0.5-0.2c0.2-0.3,0.4-0.5,0.7-0.6c0,0,0,0,0,0c0-6.8-5.5-12.2-12.2-12.2
			S4,12.2,4,18.9c0,6.8,5.5,12.2,12.2,12.2c0.6,0,1.2,0,1.8-0.1c0-0.1,0-0.2,0-0.4l0-0.1c0-0.4,0.1-0.8,0.3-1.2
			c0.1-0.3,0.3-0.6,0.4-0.9c0.1-0.1,0.1-0.2,0.1-0.4c0-0.3,0-0.7,0-1c0-0.2,0.1-0.4,0.1-0.6c0.1-0.2,0.1-0.4,0.2-0.6
			c0.1-0.2,0.2-0.3,0.2-0.5c0.5-1.2,1.6-2.1,2.9-2.4c0-0.1,0.1-0.2,0.1-0.4h-0.1l-2.1-3.4h-1.4v3.4h-1.4V14h2.4
			c1.1,0,1.9,0.2,2.5,0.6c0.5,0.4,0.8,1,0.8,1.9c0,1.1-0.6,1.8-1.7,2.3l1.6,2.5c0,0,0.1-0.1,0.1-0.1c0.2-0.2,0.3-0.3,0.5-0.5
			c0.1-0.1,0.3-0.2,0.4-0.3l0.1-0.1C25.1,19.8,26.3,19.6,27.3,19.8z M14.7,22.6L12,18.7l-0.8,0.7v3.2H9.8V14h1.3v4.1
			c0.4-0.5,0.8-0.9,1.2-1.3l2.3-2.7h1.6c-1.5,1.7-2.6,3-3.2,3.7l3.3,4.8H14.7z M16.3,32.7c-7.6,0-13.7-6.2-13.7-13.7
			c0-7.6,6.2-13.7,13.7-13.7c7.4,0,13.4,5.8,13.7,13.1c0,0,0,0,0.1,0c0.6-0.1,1.2-0.5,1.4-0.8C30.8,9.8,24.2,3.7,16.3,3.7
			C7.8,3.7,1,10.5,1,18.9c0,8.4,6.7,15.2,15.2,15.3v-0.5c0.2,0.2,0.6,0.4,0.9,0.4h0.1c0.3,0,0.7-0.1,0.9-0.4l0,0
			c0.3-0.3,0.4-0.7,0.3-1.1C17.7,32.6,17,32.7,16.3,32.7z M38.9,32.9l-0.6-1.3c-0.2-0.4-0.6-0.6-1-0.4l-1.1,0.4
			c-0.2,0.1-0.3,0.2-0.4,0.4l-0.6,1.3c-0.1,0.2-0.1,0.5,0.1,0.8c0.2,0.2,0.4,0.4,0.7,0.4l1,0c0.1,0,0.2,0,0.3,0.1l0.7,0.3
			c0.2,0.1,0.5,0.1,0.7-0.1c0.2-0.1,0.3-0.4,0.4-0.6l0-0.7C39,33.1,39,33,38.9,32.9z M21.2,15.5c-0.3-0.2-0.8-0.3-1.4-0.3h-0.9V18h1
			c0.7,0,1.1-0.1,1.4-0.4c0.3-0.2,0.4-0.6,0.4-1.1C21.7,16.1,21.5,15.7,21.2,15.5z M30,30.6c-0.3-0.2-0.6-0.2-0.9,0L26.7,32
			c-0.2,0.1-0.4,0.4-0.4,0.6s0.1,0.5,0.3,0.7l2.2,1.8c0.2,0.1,0.4,0.2,0.6,0.2l0.9-0.1c0.3,0,0.5-0.2,0.7-0.5l0.7-1.9
			c0.1-0.3,0-0.7-0.3-0.9L30,30.6z"/>
	</g>
</g>
</svg>
