<?xml version="1.0" encoding="utf-8"?>
<!-- Generator: Adobe Illustrator 18.0.0, SVG Export Plug-In . SVG Version: 6.00 Build 0)  -->
<!DOCTYPE svg PUBLIC "-//W3C//DTD SVG 1.1//EN" "http://www.w3.org/Graphics/SVG/1.1/DTD/svg11.dtd" [
	<!ENTITY ns_extend "http://ns.adobe.com/Extensibility/1.0/">
	<!ENTITY ns_ai "http://ns.adobe.com/AdobeIllustrator/10.0/">
	<!ENTITY ns_graphs "http://ns.adobe.com/Graphs/1.0/">
	<!ENTITY ns_vars "http://ns.adobe.com/Variables/1.0/">
	<!ENTITY ns_imrep "http://ns.adobe.com/ImageReplacement/1.0/">
	<!ENTITY ns_sfw "http://ns.adobe.com/SaveForWeb/1.0/">
	<!ENTITY ns_custom "http://ns.adobe.com/GenericCustomNamespace/1.0/">
	<!ENTITY ns_adobe_xpath "http://ns.adobe.com/XPath/1.0/">
]>
<svg version="1.1" xmlns:x="&ns_extend;" xmlns:i="&ns_ai;" xmlns:graph="&ns_graphs;"
	 xmlns="http://www.w3.org/2000/svg" xmlns:xlink="http://www.w3.org/1999/xlink" x="0px" y="0px" width="40px" height="40px"
	 viewBox="0 0 40 40" enable-background="new 0 0 40 40" xml:space="preserve">
<metadata>
	<sfw  xmlns="&ns_sfw;">
		<slices></slices>
		<sliceSourceBounds  height="396.4" width="394.5" y="25.6" x="35.3" bottomLeftOrigin="true"></sliceSourceBounds>
	</sfw>
</metadata>
<g id="Lag_1">
	<g>
		<g>
			<path d="M37.9,3.9l-4.3-2.8c-0.4-0.3-1-0.1-1.2,0.3L18.8,22.8c-0.1,0.1-0.1,0.3-0.1,0.5v4.9c0,0.7,0.7,1.1,1.3,0.8l4-2.2
				c0.1-0.1,0.2-0.2,0.3-0.3L38.2,5.2C38.4,4.8,38.3,4.2,37.9,3.9z M24.8,28.2l-4,2.2c-0.4,0.2-0.8,0.3-1.2,0.3h0
				c-0.1,0-0.2,0-0.3,0H8.6c-0.5,0-0.8-0.4-0.8-0.8S8.1,29,8.6,29h8.6c-0.1-0.3-0.1-0.6-0.1-0.9v-4.9c0-0.5,0.1-1,0.4-1.4l8.4-12.9
				H5.1c-1.2,0-2.2,1-2.2,2.2v25.6c0,1.2,1,2.2,2.2,2.2h27.2c1.2,0,2.2-1,2.2-2.2V13.7l-8.9,13.6C25.5,27.7,25.2,28,24.8,28.2z
				 M29.9,33.7v0.1c0,0.4-0.4,0.8-0.8,0.8H8.5c-0.4,0-0.8-0.4-0.8-0.8v-0.1c0-0.4,0.4-0.8,0.8-0.8h20.6
				C29.5,32.9,29.9,33.3,29.9,33.7z"/>
		</g>
	</g>
</g>
<g id="Lag_2" display="none">
	<g display="inline">
		<path fill="none" stroke="#000000" stroke-width="20" stroke-linecap="round" stroke-linejoin="round" d="M183.8-4.2v198.7
			c0,25.3-20.5,45.9-45.8,45.9h-282.8c-25.3,0-45.9-20.5-45.9-45.9V-90.2c0-25.3,20.5-45.9,45.9-45.9H70.1"/>
	</g>
</g>
</svg>
