<?xml version="1.0" encoding="utf-8"?>
<svg version="1.1"  xmlns="http://www.w3.org/2000/svg" xmlns:xlink="http://www.w3.org/1999/xlink" x="0px" y="0px" width="40px" height="40px"
	 viewBox="0 0 40 40" enable-background="new 0 0 40 40" xml:space="preserve">
<g id="Lag_1">
	<g>
		<g>
			<path fill="#FFFFFF" d="M34.5,34.3h-2.7c-0.4,0-0.7-0.3-0.7-0.6c0-0.4,0.3-0.6,0.7-0.6h1.9v-2h-1.9c-0.4,0-0.7-0.3-0.7-0.6
				c0-0.4,0.3-0.6,0.7-0.6h1.9v-2h-1.9c-0.4,0-0.7-0.3-0.7-0.6c0-0.4,0.3-0.6,0.7-0.6h1.9v-2h-1.9c-0.4,0-0.7-0.3-0.7-0.6
				c0-0.4,0.3-0.6,0.7-0.6h1.9c0-0.5-0.1-1.3-0.3-1.8h-3.2c-0.4,0-0.7-0.4-0.7-0.7c0-0.4,0.3-0.7,0.7-0.7h2.9
				c-0.2-0.5-0.5-1.3-0.8-2h-3.8c-0.4,0-0.7-0.3-0.7-0.6s0.3-0.6,0.7-0.6h3c-0.1,0-0.1-0.2-0.2-0.3c-1.3-2-3.1-3.4-5.2-4.6l2.8-7.8
				c0.3-0.7,0-1.6-0.8-1.8c-0.2,0-0.2,0-0.3,0l-9-1.7c-0.7-0.1-1.4,0.2-1.6,0.9L18.2,8C18.3,8.5,18,8.9,17.5,9c0,0-0.1,0-0.1,0
				c-0.4,0-0.7-0.3-0.8-0.7l-0.9-5.7l-3.2-0.2c-0.7,0-1.3,0.5-1.5,1.1c0,0.2,0,0.5,0.2,0.7l2.4,6.6c1.4,0.6,4.4,1.7,6.7,0.9
				c0.4-0.2,0.9,0.1,1,0.5c0.2,0.4-0.1,0.9-0.5,1c-0.8,0.3-1.6,0.4-2.4,0.4c-2.2,0-4.3-0.8-5.5-1.3c-1.7,1-3.1,2.4-4.2,4.1
				c-1.6,2.3-2.4,5.1-2.4,8v8.8c-1.5,1.5-1.5,4-1.5,5.3c0,0.8,0.6,1.5,1.5,1.5h27.5c0.8,0,1.5-0.7,1.5-1.5
				C35.2,37.4,35.2,35.8,34.5,34.3z M24.1,31.5c-0.8,0.7-1.8,1.2-3.4,1.3l0,1.5l-1.9,0l0-1.5c-1.5-0.1-2.4-0.6-3.2-1.3
				c-0.8-0.8-1.3-1.9-1.3-3.3l3.3,0c0,0.7,0.2,1.3,0.4,1.6c0.3,0.4,1,0.5,1.8,0.5c0.8,0,1.6-0.1,1.9-0.3c0.6-0.4,0.6-1.3,0.1-1.8
				c-1.2-1-4.3-0.8-6.2-2.4c-0.7-0.6-1.1-1.5-1.1-2.5c0-1.2,0.4-2.1,1.3-2.8c0.9-0.7,1.8-1.1,3.2-1.1l0-1.3l1.9,0l0,1.2
				c1.4,0,2.2,0.4,3,1.1c0.8,0.7,1,1.6,1.1,2.9l-3,0c0-0.5-0.1-0.9-0.4-1.2c-0.5-0.6-2.9-0.6-3.5-0.2c-0.5,0.4-0.5,1.3,0,1.7
				c0.6,0.5,2.8,0.8,3.7,1.1c1.1,0.4,2,0.8,2.5,1.3c0.7,0.7,1.1,1.5,1.1,2.6C25.3,29.8,24.9,30.8,24.1,31.5z"/>
		</g>
	</g>
</g>
<g id="tekst">
</g>
</svg>
