<?xml version="1.0" encoding="utf-8"?>
<!-- Generator: Adobe Illustrator 18.0.0, SVG Export Plug-In . SVG Version: 6.00 Build 0)  -->
<!DOCTYPE svg PUBLIC "-//W3C//DTD SVG 1.1//EN" "http://www.w3.org/Graphics/SVG/1.1/DTD/svg11.dtd" [
	<!ENTITY ns_extend "http://ns.adobe.com/Extensibility/1.0/">
	<!ENTITY ns_ai "http://ns.adobe.com/AdobeIllustrator/10.0/">
	<!ENTITY ns_graphs "http://ns.adobe.com/Graphs/1.0/">
	<!ENTITY ns_vars "http://ns.adobe.com/Variables/1.0/">
	<!ENTITY ns_imrep "http://ns.adobe.com/ImageReplacement/1.0/">
	<!ENTITY ns_sfw "http://ns.adobe.com/SaveForWeb/1.0/">
	<!ENTITY ns_custom "http://ns.adobe.com/GenericCustomNamespace/1.0/">
	<!ENTITY ns_adobe_xpath "http://ns.adobe.com/XPath/1.0/">
]>
<svg version="1.1" id="Your_Icon" xmlns:x="&ns_extend;" xmlns:i="&ns_ai;" xmlns:graph="&ns_graphs;"
	 xmlns="http://www.w3.org/2000/svg" xmlns:xlink="http://www.w3.org/1999/xlink" x="0px" y="0px" width="40px" height="40px"
	 viewBox="30 30 40 40" enable-background="new 30 30 40 40" xml:space="preserve">
<metadata>
	<sfw  xmlns="&ns_sfw;">
		<slices></slices>
		<sliceSourceBounds  width="38" height="26" x="620" y="387.5" bottomLeftOrigin="true"></sliceSourceBounds>
	</sfw>
</metadata>
<path d="M61.6,48.8c-0.4,0-0.9,0-1.3,0.1l-2.1-7.4c0.6-0.9,0.6-1.9,0.2-2.7c-0.4-0.8-1.2-1.3-2.2-1.3h-1.6c-0.4,0-0.8,0.3-0.8,0.8
	s0.3,0.8,0.8,0.8h1.6c0.4,0,0.7,0.2,0.9,0.4c0.2,0.4,0.1,0.9-0.3,1.4c-0.1,0.2-0.2,0.4-0.1,0.7l0.8,2.9H45.2l-0.4-1.2l2.3-0.8
	c0.4-0.1,0.6-0.5,0.5-0.9c-0.1-0.4-0.4-0.7-0.8-0.7h-5.8c-0.4,0-0.8,0.3-0.8,0.8c0,1.1,1.2,2,2.5,2c0.2,0,0.4,0,0.6-0.1l0.4,1.3
	l-2.5,4.3c-0.9-0.4-1.9-0.6-3-0.6c-4.1,0-7.4,3.3-7.4,7.4s3.3,7.4,7.4,7.4c3.8,0,6.9-2.9,7.3-6.6h0.6c0.3,0.7,1,1.2,1.8,1.2
	c1.1,0,1.9-0.9,1.9-1.9c0-0.2,0-0.4-0.1-0.6l8.5-7.9l0.5,1.7c-2.7,1.1-4.6,3.7-4.6,6.8c0,4.1,3.3,7.4,7.4,7.4s7.4-3.3,7.4-7.4
	S65.7,48.8,61.6,48.8z M44.4,47.1l2.4,7.6c-0.2,0.2-0.4,0.4-0.5,0.7h-0.6c-0.2-2.1-1.4-4-3-5.2L44.4,47.1z M44.1,55.3h-4.4l2.2-3.8
	C43.1,52.4,43.9,53.8,44.1,55.3z M38.4,61.9c-3.2,0-5.8-2.6-5.8-5.8c0-3.2,2.6-5.8,5.8-5.8c0.8,0,1.5,0.2,2.2,0.4l-2.9,5
	c-0.1,0.2-0.1,0.5,0,0.8c0.1,0.2,0.4,0.4,0.7,0.4h5.8C43.7,59.7,41.3,61.9,38.4,61.9z M48.8,54.3c-0.2-0.1-0.4-0.1-0.6-0.1L45.7,46
	h12.1L48.8,54.3z M61.6,61.9c-3.2,0-5.8-2.6-5.8-5.8c0-2.4,1.4-4.4,3.5-5.3l1.6,5.5c0.1,0.3,0.4,0.6,0.7,0.6c0.1,0,0.1,0,0.2,0
	c0.4-0.1,0.6-0.5,0.5-1l-1.6-5.5c0.3,0,0.6-0.1,0.9-0.1c3.2,0,5.8,2.6,5.8,5.8S64.8,61.9,61.6,61.9z"/>
</svg>
