<?xml version="1.0" encoding="utf-8"?>
<!-- Generator: Adobe Illustrator 18.0.0, SVG Export Plug-In . SVG Version: 6.00 Build 0)  -->
<!DOCTYPE svg PUBLIC "-//W3C//DTD SVG 1.1//EN" "http://www.w3.org/Graphics/SVG/1.1/DTD/svg11.dtd" [
	<!ENTITY ns_extend "http://ns.adobe.com/Extensibility/1.0/">
	<!ENTITY ns_ai "http://ns.adobe.com/AdobeIllustrator/10.0/">
	<!ENTITY ns_graphs "http://ns.adobe.com/Graphs/1.0/">
	<!ENTITY ns_vars "http://ns.adobe.com/Variables/1.0/">
	<!ENTITY ns_imrep "http://ns.adobe.com/ImageReplacement/1.0/">
	<!ENTITY ns_sfw "http://ns.adobe.com/SaveForWeb/1.0/">
	<!ENTITY ns_custom "http://ns.adobe.com/GenericCustomNamespace/1.0/">
	<!ENTITY ns_adobe_xpath "http://ns.adobe.com/XPath/1.0/">
]>
<svg version="1.1" xmlns:x="&ns_extend;" xmlns:i="&ns_ai;" xmlns:graph="&ns_graphs;"
	 xmlns="http://www.w3.org/2000/svg" xmlns:xlink="http://www.w3.org/1999/xlink" x="0px" y="0px" width="40px" height="40px"
	 viewBox="0 0 40 40" enable-background="new 0 0 40 40" xml:space="preserve">
<metadata>
	<sfw  xmlns="&ns_sfw;">
		<slices></slices>
		<sliceSourceBounds  width="415.3" height="327.5" x="45.5" y="164" bottomLeftOrigin="true"></sliceSourceBounds>
	</sfw>
</metadata>
<g id="Lag_1" display="none">
	<g display="inline" opacity="0.4">
		<path d="M150.7-177.9l6.9,85.2c0,0,32-8,67.2-34.7l0-88.2C184.4-184.6,150.7-177.9,150.7-177.9z"/>
	</g>
	<g display="inline" opacity="0.4">
		<g>
			<path d="M-190.5-149.9c0,0,31.4-33.3,73.8-46.9l32.4,83.2c0,0-41.8,15.1-76,47.2l-29.1-80.3"/>
		</g>
		<g>
			<path d="M-84.3-113.6L-49.3-24c0,0,27.5-9.8,46.4-9.8s37.7,2.8,37.7,2.8L9.4-126.3c0,0-7.2-1-16-1
				C-49-127.3-84.3-113.6-84.3-113.6z"/>
		</g>
		<g>
			<path d="M-126.2,27.9l29.6,84.1c0,0,40.9-39.2,79.9-50.3L-49.3-24C-86.8-9.5-126.2,27.9-126.2,27.9z"/>
		</g>
		<g>
			<path d="M-14-214.4l23.4,88c18.9,0,71.6,25.8,71.6,25.8l-20.8-90.9C48.3-195.9,17.1-212.9-14-214.4z"/>
		</g>
		<g>
			<path d="M34.7-31l24.1,90.6c12.1,0,47,14.8,62.1,14.8l-20.4-89.1C81-19.7,49.3-28.9,34.7-31z"/>
		</g>
		<g>
			<path d="M81-100.5l19.6,85.9c0,0,19.6,3.6,33.1,3.6c13.5,0,30.2-3.1,30.2-3.1l-6.4-78.7c0,0-13,4-28.7,4
				C104.2-88.7,81-100.5,81-100.5z"/>
		</g>
		<g>
			<path d="M163.9-14c0,0,30.9-5.7,60.8-23.1v92.7c-31.9,15.3-53.9,18.1-53.9,18.1L163.9-14z"/>
		</g>
	</g>
</g>
<g id="Lag_2">
	<g>
		<g>
			<path d="M35.8,1c-0.3-0.1-0.6-0.1-0.8,0.1c0,0-3.8,3.1-7.5,3.1c-1.8,0-3.2-0.7-4.8-1.4c-1.8-0.8-3.8-1.8-6.6-1.8
				c-4.4,0-7.8,1.4-9.9,2.7C5,4.2,4.2,4.9,3.6,5.4L3.1,4.1C3,3.7,2.5,3.5,2.1,3.6c-0.4,0.1-0.6,0.6-0.5,1l12.1,33.8
				c0.1,0.3,0.4,0.5,0.7,0.5c0.1,0,0.2,0,0.3,0c0.4-0.1,0.6-0.6,0.5-1l-3.8-10.6c1.1-1,4.4-3.8,7.8-3.8c2.4,0,4,0.4,5.4,0.9
				c1.3,0.4,2.6,0.7,4.3,0.7c3.7,0,6.7-1.6,6.9-1.7c0.3-0.1,0.4-0.4,0.4-0.7v-21C36.2,1.4,36.1,1.1,35.8,1z M34.7,13.7
				c-3.3,1.5-6,1.6-7.2,1.6c-0.1,0-0.1,0-0.2,0l0,0c-1.3,0-3-0.4-5.8-1.2c-1.5-0.4-2.6-0.6-3.4-0.6l2.6,8.5c-0.4,0-0.8,0-1.3,0
				c-0.3,0-0.6,0-1,0.1l-2.7-8.1c-1.4,0.3-5.1,1.2-7.4,4.4L7,15c1.2-1.3,3.7-3.6,7.6-4L11.9,3c0.9-0.2,1.8-0.4,2.8-0.4l2.5,8.4
				c0.4,0,2.3,0.1,4.8,0.8c2.6,0.7,4.2,1.1,5.2,1.1l0,0c1.1,0,4.4-0.1,7.4-1.9V13.7z"/>
		</g>
	</g>
</g>
<g id="Lag_3" display="none">
	<path display="inline" d="M-145-51.5c0,0,50-54.5,114-50.5l-30.7-110.8c0,0-84.8,8.9-120.8,55.3L-145-51.5z"/>
	<path display="inline" d="M10,49.5l-34-115c0,0-41-5.5-107.5,57.5l41.8,113.5C-89.7,105.5-64,65,10,49.5z"/>
	<path display="inline" d="M17-97.6c0,0,51.3,21.5,76.4,30.7C116-58.7,184-60.8,216-88.1V-201c0,0-48.9,35.5-99.5,35
		s-78.3-49.3-129.4-44.1L17-97.6z"/>
	<path display="inline" d="M56.6,51.1L26.3-62.7c0,0,53.2,40.7,104.7,35.7s87.5-24.5,87.5-24.5V51.1c0,0-48.5,27.1-73,25.2
		C121,74.5,56.6,51.1,56.6,51.1z"/>
</g>
</svg>
