<?xml version="1.0" encoding="utf-8"?>
<svg version="1.1"  xmlns="http://www.w3.org/2000/svg" xmlns:xlink="http://www.w3.org/1999/xlink" x="0px" y="0px" width="40px" height="40px"
	 viewBox="0 0 40 40" enable-background="new 0 0 40 40" xml:space="preserve">
<g id="Lag_1">
	<g>
		<g>
			<g>
				<path fill="#FFFFFF" d="M20.4,39.8c-0.4,0-0.8-0.3-0.9-0.7c-3.4-17.8,0-23.9,0.1-24.1c0.3-0.4,0.8-0.5,1.2-0.3
					c0.4,0.3,0.5,0.8,0.3,1.2c-0.1,0.1-3.2,5.9,0.1,22.9c0.1,0.4-0.3,1-0.7,1.1C20.6,39.8,20.5,39.8,20.4,39.8z"/>
			</g>
			<g>
				<path fill="#FFFFFF" d="M26.6,22.6c0,0-9.6,1.1-7.3,7.3C25.4,32.2,26.6,22.6,26.6,22.6z"/>
				<path fill="#FFFFFF" d="M12.1,28.7c0,0,9.6,1.1,7.3,7.3C13.4,38.3,12.1,28.7,12.1,28.7z"/>
			</g>
		</g>
		<g>
			<path fill="#FFFFFF" d="M25.6,2.4c0,0-18.8,6.9-8.5,16.3c0.6,0.5,1.4,0.8,2.2,0.8c3.2,0,10.9-1.1,6.6-11
				C26,8.4,24.6,5.6,25.6,2.4z"/>
			<path fill="#FFFFFF" d="M21.6,3.3c0.7-0.3,1.3-0.7,1.8-0.9c0-0.7,0.1-1.4,0.3-2.2c0,0-1.8,0.7-4,1.9C20.3,2.5,21,2.9,21.6,3.3z"
				/>
			<path fill="#FFFFFF" d="M13.3,11.6c0.8-3.4,4.3-6.1,7.4-7.8c-2.8-1.8-5.6-3-5.6-3c0.9,3.4-0.6,6.1-0.6,6.1
				c-1.1,2.5-1.5,4.4-1.3,5.9C13.1,12.4,13.2,12,13.3,11.6z"/>
		</g>
	</g>
</g>
<g id="tekst">
</g>
</svg>
