<?xml version="1.0" encoding="utf-8"?>
<svg version="1.1"  xmlns="http://www.w3.org/2000/svg" xmlns:xlink="http://www.w3.org/1999/xlink" x="0px" y="0px" width="40px" height="40px"
	 viewBox="0 0 40 40" enable-background="new 0 0 40 40" xml:space="preserve">	
<g id="Lag_1">
	<g>
		<g>
			<path fill="#000000" d="M39.8,20.5l-6-4.6l5.1-3.3c0.2-0.1,0.3-0.3,0.4-0.5c0.1-0.4,0-0.8-0.4-0.9L28.2,8.4v0
				c-0.3-0.1-0.5,0-0.7,0.1l-5.1,3.1l-6.1-5c-0.2-0.1-15.8,3.2-16,3.3C0,10.3,0,10.6,0.4,10.8L6.8,16l-5.3,5.6
				c-0.1,0.1-0.1,0.1-0.1,0.2c-0.2,0.4,0,0.8,0.4,1l9.7,3.8l6.2-6.9c0.1-0.1,0.3-0.1,0.4,0c0.1,0.1,0.1,0.3,0,0.4l-6.4,7.2l-4.5-1.9
				v5.8c0,0,0,0.3,0.4,0.4l10.2,3.1c0.1,0,0.2,0,0.3,0c0.1,0,0.1,0,0.2-0.1l14.4-3.3c0.4-0.1,0.9-0.4,0.9-0.8v-6.8l-7.4,1.7
				c0,0-0.2,0-0.2,0c-0.1,0-0.2,0-0.2-0.1L19,20.2c-0.1-0.1-0.1-0.2-0.1-0.4s0.2-0.1,0.4,0l6.8,5.2l13.4-3.2l0,0
				c0.2,0,0.3-0.1,0.4-0.3C40.2,21.2,40.1,20.8,39.8,20.5z M18.2,33.8c0,0.2-0.1,0.3-0.3,0.3c-0.2,0-0.3-0.1-0.3-0.3V22.4
				c0-0.2,0.1-0.3,0.3-0.3c0.2,0,0.3,0.1,0.3,0.3V33.8z M20.5,29.1l10.3-2.3v2.4l-10.3,2.3V29.1z M18.4,19.1L8,15.9l14.5-3.5
				l9.8,3.5L18.4,19.1z"/>
		</g>
	</g>
</g>
<g id="tekst">
</g>
</svg>
