<?xml version="1.0" encoding="utf-8"?>
<svg version="1.1"  xmlns="http://www.w3.org/2000/svg" xmlns:xlink="http://www.w3.org/1999/xlink" x="0px" y="0px" width="40px" height="40px"
	 viewBox="0 0 40 40" enable-background="new 0 0 40 40" xml:space="preserve">
<g id="Lag_1">
	<path d="M39.6,20.3c0-1.8-1.2-3.7-5.4-4c-1.8-0.1-6.7-0.2-12-0.2c0.1-1.3,0.1-5.6-0.1-5.7c-0.2-0.1-2.4-0.1-2.6,0
		c-0.2,0.1-0.2,4.5-0.1,5.7c-6.1,0-12.1,0.1-13.6,0.3c-3.2,0.4-4.8,2-4.8,4.5c0,2.5,0.7,6.2,5.3,6.2s6-4.7,6.9-4.7
		c1,0,2.1,4.7,6.9,4.7c4.8,0,5.8-4.6,7-4.7c1.2-0.1,3.6,4.7,7.8,4.5C39.4,26.8,39.6,22.1,39.6,20.3z"/>
</g>
<g>
	<path d="M32.2,29.1c-2.5-1.2-4-3.1-4.7-3.1c-1.2,0.1-2.4,4.2-7.2,4.2c-4.8,0-6.1-4.1-7-4.1c-0.7,0-1.3,1.4-4,2.9
		c-2.7,1.5-5.3,0.6-5.5,1s-0.6,8.7,0,9.1c0.6,0.4,32.5,0.6,33.3,0c0.8-0.6,0.4-8.1,0-8.8C36.6,29.7,34.7,30.3,32.2,29.1z"/>
</g>
<g>
	<path d="M22.5,7.8C23,7,23.1,5.4,22.6,3.9c-0.6-1.8-2-3.5-2.1-3.4C20.3,0.6,20,2.3,19.5,4c-0.4,1.3-1.1,1.7-0.8,3.1
		C18.9,8.2,21.2,9.4,22.5,7.8z"/>
</g>
</svg>
