<?xml version="1.0" encoding="utf-8"?>
<svg version="1.1"  xmlns="http://www.w3.org/2000/svg" xmlns:xlink="http://www.w3.org/1999/xlink" x="0px" y="0px" width="40px" height="40px"
	 viewBox="0 0 40 40" enable-background="new 0 0 40 40" xml:space="preserve">
<g id="Lag_1">
</g>
<g id="tekst">
	<g>
		<g>
			<path fill="#FFFFFF" d="M19.8,35.9c-8.8,0-16-7.2-16-16s7.2-16,16-16s16,7.2,16,16S28.7,35.9,19.8,35.9z M19.8,0.7
				C9.2,0.7,0.6,9.3,0.6,19.9s8.6,19.2,19.2,19.2S39,30.6,39,19.9S30.5,0.7,19.8,0.7z"/>
		</g>
		<g>
			<circle fill="#FFFFFF" cx="25.4" cy="16.7" r="2.1"/>
		</g>
		<g>
			<circle fill="#FFFFFF" cx="19.8" cy="13.5" r="2.1"/>
		</g>
		<g>
			<circle fill="#FFFFFF" cx="19.8" cy="26.3" r="2.1"/>
		</g>
		<g>
			<circle fill="#FFFFFF" cx="25.4" cy="23.1" r="2.1"/>
		</g>
		<g>
			<circle fill="#FFFFFF" cx="31.8" cy="16.6" r="2.1"/>
		</g>
		<g>
			<circle fill="#FFFFFF" cx="31.8" cy="23.1" r="2.1"/>
		</g>
		<g>
			<circle fill="#FFFFFF" cx="7.8" cy="16.7" r="2.1"/>
		</g>
		<g>
			<circle fill="#FFFFFF" cx="7.8" cy="23.2" r="2.1"/>
		</g>
		<g>
			<circle fill="#FFFFFF" cx="14.2" cy="16.7" r="2.1"/>
		</g>
		<g>
			<circle fill="#FFFFFF" cx="14.2" cy="23.2" r="2.1"/>
		</g>
		<g>
			<circle fill="#FFFFFF" cx="22.9" cy="7.9" r="2.1"/>
		</g>
		<g>
			<circle fill="#FFFFFF" cx="28.6" cy="11.1" r="2.1"/>
		</g>
		<g>
			<circle fill="#FFFFFF" cx="11.1" cy="28.7" r="2.1"/>
		</g>
		<g>
			<circle fill="#FFFFFF" cx="16.7" cy="31.9" r="2.1"/>
		</g>
		<g>
			<circle fill="#FFFFFF" cx="28.7" cy="28.6" r="2.1"/>
		</g>
		<g>
			<circle fill="#FFFFFF" cx="23" cy="31.9" r="2.1"/>
		</g>
		<g>
			<circle fill="#FFFFFF" cx="16.5" cy="7.9" r="2.1"/>
		</g>
		<g>
			<circle fill="#FFFFFF" cx="11" cy="11.1" r="2.1"/>
		</g>
		<g>
			<circle fill="#FFFFFF" cx="19.8" cy="19.9" r="2.1"/>
		</g>
	</g>
</g>
</svg>
