<?xml version="1.0" encoding="utf-8"?>
<svg version="1.1"  xmlns="http://www.w3.org/2000/svg" xmlns:xlink="http://www.w3.org/1999/xlink" x="0px" y="0px" width="40px" height="40px"
	 viewBox="0 0 40 40" enable-background="new 0 0 40 40" xml:space="preserve">
<g id="Lag_1">
	<g>
		<g>
			<path fill="#FFFFFF" d="M32.4,0H7.6C6.2,0,5.1,1.1,5.1,2.5v35c0,1.4,1.1,2.5,2.5,2.5h24.8c1.4,0,2.5-1.1,2.5-2.5v-35
				C34.9,1.1,33.8,0,32.4,0z M12.3,34.9c-1.2,0-2.3-1-2.3-2.3s1-2.3,2.3-2.3c1.2,0,2.3,1,2.3,2.3S13.5,34.9,12.3,34.9z M12.3,27.1
				c-1.2,0-2.3-1-2.3-2.3c0-1.2,1-2.3,2.3-2.3c1.2,0,2.3,1,2.3,2.3C14.5,26.1,13.5,27.1,12.3,27.1z M12.3,19.4c-1.2,0-2.3-1-2.3-2.3
				s1-2.3,2.3-2.3c1.2,0,2.3,1,2.3,2.3S13.5,19.4,12.3,19.4z M20,34.9c-1.2,0-2.3-1-2.3-2.3s1-2.3,2.3-2.3c1.2,0,2.3,1,2.3,2.3
				S21.3,34.9,20,34.9z M20,27.1c-1.2,0-2.3-1-2.3-2.3c0-1.2,1-2.3,2.3-2.3c1.2,0,2.3,1,2.3,2.3C22.3,26.1,21.3,27.1,20,27.1z
				 M20,19.4c-1.2,0-2.3-1-2.3-2.3s1-2.3,2.3-2.3c1.2,0,2.3,1,2.3,2.3S21.3,19.4,20,19.4z M27.8,34.9c-1.2,0-2.3-1-2.3-2.3
				s1-2.3,2.3-2.3c1.2,0,2.3,1,2.3,2.3S29,34.9,27.8,34.9z M27.8,27.1c-1.2,0-2.3-1-2.3-2.3c0-1.2,1-2.3,2.3-2.3
				c1.2,0,2.3,1,2.3,2.3C30,26.1,29,27.1,27.8,27.1z M27.8,19.4c-1.2,0-2.3-1-2.3-2.3s1-2.3,2.3-2.3c1.2,0,2.3,1,2.3,2.3
				S29,19.4,27.8,19.4z M29.5,10.4h-19c-0.6,0-1.2-0.5-1.2-1.2V5.6c0-0.6,0.5-1.2,1.2-1.2h19c0.6,0,1.2,0.5,1.2,1.2v3.6h0
				C30.7,9.8,30.2,10.4,29.5,10.4z"/>
		</g>
	</g>
</g>
<g id="tekst">
</g>
</svg>
