<?xml version="1.0" encoding="utf-8"?>
<svg version="1.1"  xmlns="http://www.w3.org/2000/svg" xmlns:xlink="http://www.w3.org/1999/xlink" x="0px" y="0px" width="40px" height="40px"
	 viewBox="0 0 40 40" enable-background="new 0 0 40 40" xml:space="preserve">
<g id="Lag_1">
	<g>
		<g>
		<path fill="#FFFFFF" d="M39.7,35H38V16.1c0-0.2-0.1-0.4-0.3-0.3l-9.3,5.2c-0.2,0.1-0.4,0-0.4-0.3v-4.7c0-0.2-0.2-0.4-0.4-0.3
			l-9.1,5.2c-0.2,0.1-0.4,0-0.4-0.3v-4.7c0-0.2-0.2-0.4-0.4-0.3l-9.2,5.2c-0.2,0.1-0.4,0-0.4-0.2L7,2.1C7,1.9,6.8,2,6.7,2H3
			C2.9,2,2.7,1.9,2.7,2.1L1.7,35H0.3C0.1,35,0,35.1,0,35.3v1.4C0,36.9,0.1,37,0.3,37h39.4c0.2,0,0.3-0.1,0.3-0.3v-1.4
			C40,35.1,39.9,35,39.7,35z M14,30.7c0,0.2-0.1,0.3-0.3,0.3H9.3C9.1,31,9,30.9,9,30.7v-4.4C9,26.1,9.1,26,9.3,26h4.4
			c0.2,0,0.3,0.1,0.3,0.3V30.7z M24,30.7c0,0.2-0.1,0.3-0.3,0.3h-4.4c-0.2,0-0.3-0.1-0.3-0.3v-4.4c0-0.2,0.1-0.3,0.3-0.3h4.4
			c0.2,0,0.3,0.1,0.3,0.3V30.7z M34,30.7c0,0.2-0.1,0.3-0.3,0.3h-4.4c-0.2,0-0.3-0.1-0.3-0.3v-4.4c0-0.2,0.1-0.3,0.3-0.3h4.4
			c0.2,0,0.3,0.1,0.3,0.3V30.7z"/>
	</g>
	</g>
</g>
<g id="tekst">
</g>
</svg>

