<?xml version="1.0" encoding="utf-8"?>
<svg version="1.1"  xmlns="http://www.w3.org/2000/svg" xmlns:xlink="http://www.w3.org/1999/xlink" x="0px" y="0px" width="40px" height="40px"
	 viewBox="0 0 40 40" enable-background="new 0 0 40 40" xml:space="preserve">
<g id="Lag_1">
	<g>
		<path fill="#FFFFFF" d="M16-0.1c2.7,0,5,2.1,5.2,4.7C23,4.5,23.8,5.6,24,7.8c0.2,1.9,0,3.4,0.6,4.3c0,0.1,0,0.1,0,0.2
			c0,0.1-0.1,0.1-0.2,0c-1.5-0.7-2.2-1.3-2.5-2.3c-0.4-1.5,0-3.7-0.7-4.5c-0.2,2.7-2.5,4.7-5.2,4.7s-5-2.1-5.2-4.7
			c-0.7,0.8-0.4,3-0.7,4.5c-0.2,1-1,1.7-2.5,2.3c-0.1,0-0.1,0-0.2,0c0-0.1-0.1-0.1,0-0.2c0.6-1,0.4-2.5,0.6-4.3
			C8.2,5.6,9,4.5,10.8,4.6C11,1.9,13.3-0.1,16-0.1z M19.5,13.3l6.4,10.5c0.9,1.4-1.3,2.8-2.3,1.3L20,19.6l2.4,11.7h-2.8l0.2,7.3
			c0,1.7-2.5,1.8-2.6,0.2l-0.7-7.5h-1.2l-0.6,7.5c-0.1,1.7-2.7,1.5-2.6-0.2l0.2-7.3H9.6L12.1,19v-0.3l-1.6,1.9
			c-0.5,0.6-1.4,0.6-2,0.1l-5.1-4.7c-1.2-1.2,0.5-3,1.7-1.9l4.1,3.6l3.2-4.3C14.1,11.1,18.1,11,19.5,13.3z"/>
	</g>
	<g>
		<path fill-rule="evenodd" clip-rule="evenodd" fill="#FFFFFF" d="M32.4,25.7c0.6,0.3,0.9,1.1,0.5,1.8s-1.1,0.9-1.8,0.5
			c-0.6-0.3-0.9-1.1-0.5-1.8C31,25.6,31.8,25.3,32.4,25.7z M30.3,23.4c0.6-0.5,1.4-0.7,2.1-0.7c0-0.6-0.5-1.1-1.1-1.1
			c-0.6,0-1.1,0.5-1.1,1.1C30.1,23,30.2,23.2,30.3,23.4z M34.9,24c0.5,0.6,0.7,1.4,0.6,2.1c0.6,0,1.1-0.5,1.1-1.1
			c0-0.6-0.5-1.1-1.1-1.1C35.2,23.9,35,23.9,34.9,24z M32.5,30.4C32.6,30.4,32.6,30.5,32.5,30.4c0.5,0.6,1,1.3,1.3,2
			c0.4,0.7,0.6,1.4,0.8,2.1c0.1,0.5-0.2,1-0.8,1.1c-0.5,0.1-1-0.2-1.1-0.8c-0.1-0.5-0.3-1.1-0.6-1.6c-0.1-0.3-0.3-0.5-0.5-0.8
			l-0.6,1c-0.1,0.3-0.3,0.5-0.5,0.7c0.1,0.6,0.1,1.3,0.1,1.9c0,0.8-0.2,1.5-0.4,2.2c-0.2,0.5-0.7,0.8-1.2,0.7
			c-0.5-0.2-0.8-0.7-0.7-1.2c0.2-0.6,0.3-1.1,0.3-1.7c0-0.3,0-0.7,0-1.1c-0.4,0-0.8-0.1-1.1-0.3c-0.4-0.2-0.7-0.5-1-0.9
			c-0.3,0.1-0.5,0.3-0.7,0.4c-0.5,0.3-0.9,0.8-1.3,1.4c-0.3,0.4-0.9,0.6-1.4,0.3c-0.5-0.3-0.6-0.9-0.3-1.3c0.5-0.8,1.1-1.4,1.8-1.9
			c0.5-0.3,1-0.6,1.5-0.8c0-0.2,0.1-0.5,0.3-0.7l0.8-1.5c-0.5-0.6-0.9-1.1-1.2-1.7c-0.2-0.3-0.4-0.7-0.5-1c0.2-0.1,0.4-0.2,0.6-0.3
			c0.4-0.3,0.7-0.6,1-1c0.2,0.4,0.4,0.9,0.6,1.3c0.2,0.4,0.5,0.8,0.8,1.1c0.3-0.2,0.6-0.3,0.9-0.4c-0.6-1-0.7-2.2-0.1-3.3
			c0,0,0,0,0,0c-0.4-0.4-0.6-1-0.6-1.6c0-1.3,1.1-2.4,2.5-2.4c1.4,0,2.5,1.1,2.5,2.4c0,0.1,0,0.2,0,0.2c0.1,0,0.1,0.1,0.2,0.1
			c0.4-0.4,1-0.6,1.6-0.6c1.4,0,2.5,1.1,2.5,2.4c0,1.3-1.1,2.4-2.5,2.4c-0.1,0-0.2,0-0.3,0c0,0,0,0,0,0.1c-0.6,1.1-1.7,1.7-2.8,1.7
			C32.5,29.6,32.6,30,32.5,30.4z"/>
	</g>
</g>
<g id="tekst">
</g>
</svg>
