<?xml version="1.0" encoding="utf-8"?>
<svg version="1.1"  xmlns="http://www.w3.org/2000/svg" xmlns:xlink="http://www.w3.org/1999/xlink" x="0px" y="0px" width="40px" height="40px"
	 viewBox="0 0 40 40" enable-background="new 0 0 40 40" xml:space="preserve">
<g id="Lag_1">
	<g>
		<path fill="#000000" d="M18.2,33.2c-1.3-0.8-2-2.4-2.1-3.8c0.6,0.7,1.2,0.6,1.7,0.3c0.5-0.3,0.7-0.9,0.3-2.2
			c-0.4-1-0.5-1.9-0.1-2.7c0.1,0.3,0.2,1,0.8,1c0.8,0,0.8-1.3,0.9-1.8c0.2-1.1,0.7-1.5,0.9-1.6c-0.6,1,0,3.8,0.8,4.2
			c0.7,0.4,1.1-0.5,1.3-1c0.2,2.2-0.9,1.9-0.6,4.1c0.1,0.7,1.1,1.3,1.9-0.1c0.1,1.5-0.5,2.9-2,3.6c3.4-0.8,4.6-4.1,4.6-5.9
			c0-0.8-0.1-1.4-0.6-2.2c-0.1,0.2,0,0.4-0.2,0.7c-0.3,0.5-0.7,0.7-1.3,0.7c-0.9,0-1.2-1-0.8-1.7c0.4-0.8,1.3-1.3,1.3-2.5
			c0.1-1.9-1-2.5-1-2.5c0.1,0.4,0.2,0.7,0,1.2c-0.3,0.7-0.9,0.7-1.4,0.5c-1.1-0.5-0.4-1.9-0.2-2.7c0.1-0.7,0.1-1.5-0.5-2.2
			c-0.8-1-2.1-1.4-2.4-2.1c-0.1-0.4-0.1-0.9,0.1-1.5c-0.3,0.1-1.2,0.7-1.2,1.9c0,0.9,1.1,1.6,1.1,2.8c0,0.8-0.4,1.7-1.3,2.1
			c-1,0.5-2.3,0-2.2-1.4c-0.9,0.7-0.7,2-0.4,2.8c0.5,1.1,0.8,1.5,0.8,2.7c0,0.8-0.5,1.8-1.5,1.8c-0.8,0-1.3-0.8-1.5-1.3
			c-0.3,1.4-0.2,3.5,0.4,5.2C14.3,30.3,15.2,32.5,18.2,33.2z"/>
	</g>
	<path fill="#000000" d="M1.3,5.7v32.8c0,0.5,0.4,0.9,0.9,0.9h3.6c0.5,0,0.9-0.4,0.9-0.9V22.1c0-7.3,5.9-13.3,13.3-13.3h0
		c7.3,0,13.3,5.9,13.3,13.3v16.4c0,0.5,0.4,0.9,0.9,0.9h3.6c0.5,0,0.9-0.4,0.9-0.9V5.7c0-0.5-0.4-0.9-0.9-0.9H2.2
		C1.7,4.8,1.3,5.2,1.3,5.7z"/>
	<path fill="#000000" d="M39.8,3H0.2C0.1,3,0,2.9,0,2.8V0.8c0-0.1,0.1-0.3,0.3-0.3h39.5c0.1,0,0.3,0.1,0.3,0.3v1.9
		C40,2.9,39.9,3,39.8,3z"/>
	<g>
		<path fill="#000000" d="M27.8,37.4l-4.2-1.3l4.2-1.3c0.4-0.1,0.7-0.6,0.6-1l-0.1-0.4c-0.1-0.4-0.6-0.7-1-0.6L20,35.1l-7.2-2.2
			c-0.4-0.1-0.9,0.1-1,0.6l-0.1,0.4c-0.1,0.4,0.1,0.9,0.6,1l4.2,1.3l-4.2,1.3c-0.4,0.1-0.7,0.6-0.6,1l0.1,0.4c0.1,0.4,0.6,0.7,1,0.6
			l7.2-2.2l7.2,2.2c0.4,0.1,0.9-0.1,1-0.6l0.1-0.4C28.4,38,28.2,37.5,27.8,37.4z"/>
	</g>
</g>
<g id="tekst">
</g>
</svg>
