<?xml version="1.0" encoding="utf-8"?>
<svg version="1.1"  xmlns="http://www.w3.org/2000/svg" xmlns:xlink="http://www.w3.org/1999/xlink" x="0px" y="0px" width="40px" height="40px"
	 viewBox="0 0 40 40" enable-background="new 0 0 40 40" xml:space="preserve">
<g id="Lag_1">
	<g>
		<path fill="#000000" d="M38.7,11.6h-1.8c-1.5,0-0.9,1.7-1.8,2.2c-0.3-1.7-1.1-4.6-3-7.1c-0.9-1.4-1.6-2.4-6.1-2.9
			c0,0-4.3-0.3-6-0.3c-1.7,0-5.9,0.3-5.9,0.3C9.3,4.3,8.8,5.4,7.9,6.7c-1.7,2.6-2.6,5.4-3,7.1c-0.8-0.5-0.3-2.2-1.8-2.2H1.3
			c-0.7,0-1.2,0.5-1.2,1.2v1.5c0,0.7,0.5,1.2,1.2,1.2h3.3c-1.9,1.5-3.2,4.2-3.2,6.6s0.3,7.2,1.7,9.1c0.1,0.2,0.5,0.3,1,0.4v2.4
			c0,0.7,0.6,1.3,1.3,1.3h2.7c0.7,0,1.3-0.6,1.3-1.3v-1.7c3.5,0.3,7.7,0.4,10.6,0.4s7.1-0.1,10.6-0.4v1.7c0,0.7,0.6,1.3,1.3,1.3h2.7
			c0.7,0,1.3-0.6,1.3-1.3v-2.4c0.5-0.1,0.8-0.3,1-0.4c1.4-1.8,1.7-6.6,1.7-9.1s-1.2-5.1-3.2-6.6h3.3c0.7,0,1.2-0.5,1.2-1.2v-1.5
			C40,12.2,39.4,11.6,38.7,11.6z M10.3,7.4c1.1-0.3,3.5-1,9.9-1c6.3,0,8.7,0.7,9.9,1c2.3,3.7,3,7,3.1,7.6c-2.3-0.4-6.3-0.6-12.9-0.6
			S9.7,14.5,7.4,14.9C7.3,14.4,8,10.8,10.3,7.4z M11.3,23.5c-0.1,0.1-0.2,0.1-0.3,0.1H4.5c-0.3,0-0.5-0.2-0.5-0.5v-1.7
			c0-0.2,0.2-0.4,0.4-0.4h5.3c0.9,0,1.4,0.9,1.5,2.2C11.4,23.3,11.4,23.4,11.3,23.5z M26.7,21.6l-1,2.9c-0.1,0.2-0.3,0.4-0.6,0.4
			H14.9c-0.3,0-0.5-0.2-0.6-0.4l-1-2.9c-0.1-0.2,0-0.4,0.1-0.5c0.1-0.1,0.3-0.2,0.5-0.2h12c0.2,0,0.4,0.1,0.5,0.2
			C26.7,21.3,26.8,21.5,26.7,21.6z M35.6,20.9c0.2,0,0.4,0.2,0.4,0.4v1.7c0,0.3-0.2,0.5-0.5,0.5H29c-0.1,0-0.2,0-0.3-0.1
			s-0.1-0.2-0.1-0.3c0.1-1.2,0.6-2.2,1.5-2.2H35.6L35.6,20.9z"/>
	</g>
</g>
<g id="tekst">
</g>
</svg>
