<?xml version="1.0" encoding="utf-8"?>
<svg version="1.1"  xmlns="http://www.w3.org/2000/svg" xmlns:xlink="http://www.w3.org/1999/xlink" x="0px" y="0px" width="40px" height="40px"
	 viewBox="0 0 40 40" enable-background="new 0 0 40 40" xml:space="preserve">
<g id="Lag_1">
	<g>
		<g>
			<path fill="#000000" d="M39.9,20.7c0,0,0.1-1.7-2-2.6c-2.1-0.9-4.8-1.9-4.8-1.9L28,9.3c0,0-0.7-1.1-2.7-1.1
				c-2,0-22.6,0.1-22.6,0.1S1.2,8.2,0.8,9.7c0,0.1-0.1,0.3-0.1,0.4l-0.5,4.2c0,0.5-0.1,1-0.1,1.6L0,20c0,0.5,0,1,0,1.6l0.1,4.2
				c0,0.1,0,0.4,0,0.4S0.2,28,1.3,28h2.3c-0.2-0.5-0.2-0.9-0.2-1.4C3.4,24,5.5,22,8,22c2.5,0,4.6,2,4.6,4.6c0,0.5-0.1,1-0.2,1.4
				h15.9C28,27.5,28,27,28,26.5c0-2.5,2-4.6,4.6-4.6c2.5,0,4.6,2,4.6,4.6c0,0.5-0.1,1-0.2,1.4c0.8,0,1.3,0,1.3,0s1.5,0,1.7-1.6
				C40.1,24.8,39.9,20.7,39.9,20.7z M21.4,16.1v-5.6h4.6c1.7,0.4,5,5.6,5,5.6H21.4z M8,23.3c-1.8,0-3.2,1.4-3.2,3.2
				c0,0.5,0.1,1,0.4,1.4C5.6,29,6.7,29.8,8,29.8c1.3,0,2.3-0.7,2.9-1.8c0.2-0.4,0.4-0.9,0.4-1.4C11.2,24.8,9.8,23.3,8,23.3z
				 M32.5,23.3c-1.8,0-3.2,1.4-3.2,3.2c0,0.5,0.1,1,0.4,1.4c0.5,1.1,1.6,1.8,2.9,1.8c1.3,0,2.3-0.7,2.9-1.8c0.2-0.4,0.4-0.9,0.4-1.4
				C35.7,24.8,34.3,23.3,32.5,23.3z"/>
		</g>
	</g>
</g>
<g id="tekst">
</g>
</svg>
