<?xml version="1.0" encoding="utf-8"?>
<svg version="1.1"  xmlns="http://www.w3.org/2000/svg" xmlns:xlink="http://www.w3.org/1999/xlink" x="0px" y="0px" width="40px" height="40px"
	 viewBox="0 0 40 40" enable-background="new 0 0 40 40" xml:space="preserve">
<g id="Lag_1">
	<g>
		<g>
			<path fill="#FFFFFF" d="M22.7,3.2l-1-1.8c-0.7-1.3-2.2-1.8-3.5-1.1l-5.1,2.9L11.8,1L5.9,4.3l1.3,2.3L2.4,9.3
				C1.1,10,0.4,11.8,1.2,13l1,1.8L22.7,3.2z M2.2,35.4C2.2,37.9,4.5,40,7,40h14.3c2.5,0,4.4-2.1,4.4-4.6V16.9H2.2V35.4z M19.5,21.1
				h1.6v13.1h-1.6V21.1z M13.2,21.1h1.6v13.1h-1.6V21.1z M7.4,21.1H9v13.1H7.4V21.1z M14,14.2c0,0.6,0.5,1.1,1.1,1.1
				c0.6,0,1.1-0.5,1.1-1.1s-0.5-1.1-1.1-1.1C14.4,13.2,14,13.7,14,14.2z M24.2,15.3c0.6,0,1.1-0.5,1.1-1.1s-0.5-1.1-1.1-1.1
				c-0.6,0-1.1,0.5-1.1,1.1S23.6,15.3,24.2,15.3z M16.3,10.3c0,0.6,0.5,1.1,1.1,1.1s1.1-0.5,1.1-1.1s-0.5-1.1-1.1-1.1
				S16.3,9.7,16.3,10.3z M21.9,9.2c-0.6,0-1.1,0.5-1.1,1.1s0.5,1.1,1.1,1.1s1.1-0.5,1.1-1.1S22.5,9.2,21.9,9.2z M18.4,14.2
				c0,0.6,0.5,1.1,1.1,1.1s1.1-0.5,1.1-1.1s-0.5-1.1-1.1-1.1S18.4,13.7,18.4,14.2z M29.2,37.9c-0.6,0-1.1,0.5-1.1,1.1
				s0.5,1.1,1.1,1.1c0.6,0,1.1-0.5,1.1-1.1S29.7,37.9,29.2,37.9z M29.2,29.9c-0.6,0-1.1,0.5-1.1,1.1s0.5,1.1,1.1,1.1
				c0.6,0,1.1-0.5,1.1-1.1S29.7,29.9,29.2,29.9z M31.5,33.9c-0.6,0-1.1,0.5-1.1,1.1s0.5,1.1,1.1,1.1s1.1-0.5,1.1-1.1
				S32,33.9,31.5,33.9z M33.6,37.9c-0.6,0-1.1,0.5-1.1,1.1S33,40,33.6,40s1.1-0.5,1.1-1.1S34.2,37.9,33.6,37.9z M35.9,33.9
				c-0.6,0-1.1,0.5-1.1,1.1s0.5,1.1,1.1,1.1S37,35.6,37,35S36.5,33.9,35.9,33.9z M38.1,37.9c-0.6,0-1.1,0.5-1.1,1.1s0.5,1.1,1.1,1.1
				s1.1-0.5,1.1-1.1S38.7,37.9,38.1,37.9z M33.8,29.9c-0.6,0-1.1,0.5-1.1,1.1s0.5,1.1,1.1,1.1s1.1-0.5,1.1-1.1S34.4,29.9,33.8,29.9z
				 M9.5,14.2c0,0.6,0.5,1.1,1.1,1.1c0.6,0,1.1-0.5,1.1-1.1s-0.5-1.1-1.1-1.1C10,13.2,9.5,13.7,9.5,14.2z"/>
		</g>
	</g>
</g>
<g id="tekst">
</g>
</svg>
