<?xml version="1.0" encoding="utf-8"?>
<svg version="1.1"  xmlns="http://www.w3.org/2000/svg" xmlns:xlink="http://www.w3.org/1999/xlink" x="0px" y="0px" width="40px" height="40px"
	 viewBox="0 0 40 40" enable-background="new 0 0 40 40" xml:space="preserve">
<g id="Lag_1">
	<g id="layer1_9_" transform="translate(0,448)">
		<g id="g31914_2_" transform="matrix(0.84815235,0,0,0.84815235,9743.4855,-13030.634)">
			<path id="rect30016-0-9_2_" fill="#FFFFFF" d="M-11486,14836.1c-0.7,0-1.3,0.6-1.3,1.3v36.5c0,0.7,0.6,1.3,1.3,1.3h26.7
				c0.7,0,1.3-0.6,1.3-1.3v-3.6c-3.7,1.7-8.2,1.4-11.7-0.6c-0.2-0.1-0.3-0.2-0.4-0.3h-12.3c-0.7,0-1.3-0.6-1.3-1.3s0.6-1.3,1.3-1.3
				h9.3c-0.8-1-1.5-2.2-2-3.5h-7.3c-0.7,0-1.3-0.6-1.3-1.3c0-0.7,0.6-1.3,1.3-1.3h6.6c-0.2-1.1-0.2-2.3-0.1-3.5h-6.6
				c-0.7,0-1.3-0.6-1.3-1.3s0.6-1.3,1.3-1.3h7.1c0.4-1.3,1.1-2.4,1.9-3.5h-9c-0.7,0-1.3-0.6-1.3-1.3c0-0.7,0.6-1.3,1.3-1.3h11.7
				c2-1.5,4.5-2.4,7-2.4c0.8,0,1.6,0,2.4,0.1c1.1,0.1,2.2,0.5,3.2,0.9v-2.7h-8.2c-0.3,0-0.7-0.3-0.7-0.7v-7.8H-11486z
				 M-11465.5,14836.6v6.6h6.9L-11465.5,14836.6z M-11463.2,14851.3c-0.1,0-0.1,0-0.2,0c-2.1,0-4.1,1-5.4,2.6
				c-0.2,0.2-0.4,0.5-0.6,0.7h6.5c0.7,0,1.3,0.6,1.3,1.3c0,0.7-0.6,1.3-1.3,1.3h-7.6c-0.2,1.1-0.2,2.3,0.1,3.5h7.5
				c0.7,0,1.3,0.6,1.3,1.3c0,0.7-0.6,1.3-1.3,1.3h-6.2c1.6,2,4.2,3.2,6.8,2.9c1.7-0.1,3.2-1,4.4-2.1v-10.5
				C-11459.4,14852.2-11461.2,14851.3-11463.2,14851.3L-11463.2,14851.3z"/>
			<path id="path31877_2_" fill="#FFFFFF" d="M-11463.2,14847.2c3,0,6,1.1,8.2,3.4c4.5,4.5,4.5,11.9,0,16.5
				c-4.5,4.5-11.9,4.5-16.5,0c-4.5-4.5-4.5-11.9,0-16.5C-11469.2,14848.3-11466.2,14847.2-11463.2,14847.2L-11463.2,14847.2z
				 M-11463.2,14850.4c-2.2,0-4.3,0.8-6,2.5c-3.3,3.3-3.3,8.6,0,11.9c3.3,3.3,8.6,3.3,11.9,0c3.3-3.3,3.3-8.6,0-11.9
				C-11458.9,14851.2-11461.1,14850.4-11463.2,14850.4z"/>
			<path id="path31879_2_" fill="#FFFFFF" d="M-11452.2,14864.9l10.1,10.1c1.2,1.2,1.2,3.2,0,4.5s-3.2,1.2-4.5,0l-10-10
				c0.3-0.2,0.5-0.3,0.8-0.5C-11454.3,14867.9-11453.1,14866.5-11452.2,14864.9L-11452.2,14864.9z"/>
		</g>
	</g>
</g>
<g id="tekst">
</g>
</svg>
