<?xml version="1.0" encoding="utf-8"?>
<svg version="1.1"  xmlns="http://www.w3.org/2000/svg" xmlns:xlink="http://www.w3.org/1999/xlink" x="0px" y="0px" width="40px" height="40px"
	 viewBox="0 0 40 40" enable-background="new 0 0 40 40" xml:space="preserve">
<g id="Lag_1">
	<g>
		<path fill="#395F77" d="M13.2,26.7l-1.9-5l-1.9,4.8H6.8l3.1-6.7L7,13.3h2.7l1.7,4.5l2.1-4.9l2.6-0.1l-3.2,7l3.3,7.2L13.2,26.7z
			 M0.1,4.7v31.1l22.9,4.1V0.6L0.1,4.7z"/>
	</g>
	<g>
		<path fill="#395F77" d="M37.3,11h-6.6V6.9h6.6V11z M37.3,16.3h-6.6v-4.1h6.6V16.3z M37.3,21.6h-6.6v-4.1h6.6V21.6z M37.3,27h-6.6
			v-4.1h6.6V27z M37.3,32.3h-6.6v-4.1h6.6V32.3z M39.2,4.6H23.7v2.3h5.8V11h-5.8v1.2h5.8v4.1h-5.8v1.2h5.8v4.1h-5.8v1.2h5.8V27h-5.8
			v1.3h5.8v4.1h-5.8v2.6h15.5c0.4,0,0.8-0.4,0.8-0.8V5.4C39.9,5,39.6,4.6,39.2,4.6z"/>
	</g>
</g>
<g id="tekst">
</g>
</svg>
