<?xml version="1.0" encoding="utf-8"?>
<svg version="1.1"  xmlns="http://www.w3.org/2000/svg" xmlns:xlink="http://www.w3.org/1999/xlink" x="0px" y="0px" width="40px" height="40px"
	 viewBox="0 0 40 40" enable-background="new 0 0 40 40" xml:space="preserve">
<g id="Lag_1">
<g>
	<polygon fill="#395F77" points="1.4,16.6 4.9,17.3 5.3,4.3 2.4,3.9 	"/>
</g>
<g>
	<polygon fill="#395F77" points="5.7,15.8 6.9,15.8 8.1,4.8 6.3,4.8 	"/>
</g>
<g>
	<path fill="#395F77" d="M8.6,4.8c0,0,11.5-0.2,12.6,0.3c1.1,0.5,4,4.3,4,4.3h-2.4c-0.6-0.4-0.5-1-1.1-1.2C21.2,8,20.8,8,20.4,7.7
		c-0.3-0.2-0.5-0.4-0.8-0.5c-0.4-0.1-1.2,0.4-1.3,0.9c-0.2,0.8,0.6,1.3,1.1,1.6c1.1,0.6,6.5,1.6,6.2,3.5c-0.3,1.9-4.7,0-4.7,0
		s-1.5-0.4-2.8-0.7c-1.3-0.3-2.2,0.6-3.9,0.3c-1.6-0.3-4.8-0.8-4.8-0.8l0.1,0.5l5.2,1.2l-0.8,2.6L7.9,14L8.6,4.8L8.6,4.8z"/>
</g>
<g>
	<path fill="#395F77" d="M23.3,10.3C23.5,10.4,35.2,10.5,38,9L37.5,18c0,0-9.3,1.9-22.8-0.7l0.8-3.5c2.3-0.8,5.7,1.3,8.2,1.2
		c2.5-0.2,2.7-0.6,2.7-2.2C26.5,11.1,23.3,10.3,23.3,10.3L23.3,10.3z"/>
</g>
<g>
	<path fill="#395F77" d="M23.3,10.3C23.5,10.4,35.2,10.5,38,9L37.5,18c0,0-9.3,1.9-22.8-0.7l0.8-3.5c2.3-0.8,5.7,1.3,8.2,1.2
		c2.5-0.2,2.7-0.6,2.7-2.2C26.5,11.1,23.3,10.3,23.3,10.3L23.3,10.3z"/>
</g>
<g>
	<path fill="#395F77" d="M22.2,19.2c-0.1,1.1-0.4,1.9-0.9,1.9c-0.5,0-0.9-0.9-0.9-2C21,19.1,21.6,19.2,22.2,19.2z"/>
</g>
<g>
	<path fill="#395F77" d="M20,19C20,19,20,19,20,19c0,0.9-0.3,1.6-0.7,1.6c-0.4,0-0.7-0.7-0.7-1.6c0-0.1,0-0.1,0-0.2
		C19.1,18.9,19.5,19,20,19L20,19z"/>
</g>
<g>
	<path fill="#395F77" d="M18.5,18.8c0,0.6-0.3,1-0.6,1c-0.3,0-0.6-0.5-0.6-1.1c0,0,0,0,0-0.1C17.7,18.7,18.1,18.8,18.5,18.8z"/>
</g>
<g>
	<path fill="#395F77" d="M38.9,22.8h-2.1c0,0,0.7,6.9,0.4,9.4h2.1C39.3,32.3,39.7,27.3,38.9,22.8L38.9,22.8z"/>
</g>
<g>
	<path fill="#395F77" d="M36.5,24.1h-0.9c0,0,0.6,4.9,0.5,7h0.7C36.8,31,37,27.4,36.5,24.1z"/>
</g>
<g>
	<path fill="#395F77" d="M14.1,27.6c0.8,0,1.7,0.6,2.1,1.1c0.9,1,1.9,1.4,3.2,1.6c1.4,0.2,2.9,0.4,4.3-0.2c0.5-0.2,1.7-0.9,2-0.9
		c0.2,0,2-0.6,2-0.6L27.4,28c0,0-1.3,0.1-1.7,0c-0.4-0.1-1.2-0.2-2.1-0.1c-0.8,0.1-3.3,0.5-4.3,0.7c-1.1,0.2-1.5-1.5-1.1-2.2
		c0.4-0.6,1.9-1,3.1-1.2c1.2-0.2,2.1-0.2,3.2-0.4c1-0.2,2.3-1.7,4.9-2c2.6-0.3,5.2,0.9,5.2,0.9l0.5,6.4c0,0,0,0-1.1,0.2
		c-1.1,0.2-7.5,4.4-8.8,4.5c-1.2,0.1-5.7-1-6.7-1c-0.8,0-1.7-0.9-2.4-1.4c-0.8-0.6-1.7-1.3-2.4-2c-0.4-0.4-0.5-1.2,0.2-1.3
		c-0.3-0.2-0.9-0.5-0.5-1C13.6,27.7,13.9,27.6,14.1,27.6z"/>
</g>
<path fill="#395F77" d="M25.7,9.9"/>
</g>
</svg>
