<?xml version="1.0" encoding="utf-8"?>
<svg version="1.1"  xmlns="http://www.w3.org/2000/svg" xmlns:xlink="http://www.w3.org/1999/xlink" x="0px" y="0px" width="40px" height="40px"
	 viewBox="0 0 40 40" enable-background="new 0 0 40 40" xml:space="preserve">
<g id="Lag_1">
	<g>
		<g>
			<path fill="#FFFFFF" d="M21.4,23c-0.7-0.3-1.3-0.7-2-0.3c-0.8,0.2-1.3,0.7-1.5,1.3c-0.3,0.7-0.3,1.3-0.2,2.3l5-1.5
				C22.4,24,22,23.3,21.4,23z M35,34.4h-2.7c-0.4,0-0.7-0.3-0.7-0.7s0.3-0.7,0.7-0.7h1.9v-1.9h-1.9c-0.4,0-0.7-0.3-0.7-0.7
				s0.3-0.7,0.7-0.7h1.9v-0.2c0-0.6,0-1.2,0-1.8h-1.9c-0.4,0-0.7-0.3-0.7-0.7s0.3-0.7,0.7-0.7h1.9c0-0.6,0-1.2,0-1.9h-1.9
				c-0.4,0-0.7-0.3-0.7-0.7s0.3-0.7,0.7-0.7h1.9c0-0.6-0.1-1.3-0.3-1.9h-3.3c-0.4,0-0.7-0.3-0.7-0.7s0.3-0.7,0.7-0.7h2.9
				c-0.2-0.7-0.5-1.3-0.8-2H29c-0.4,0-0.7-0.3-0.7-0.7s0.3-0.7,0.7-0.7h3c-0.1-0.1-0.1-0.2-0.2-0.3c-1.3-2-3.1-3.5-5.3-4.6l2.8-7.9
				c0.3-0.7,0-1.5-0.8-1.8c-0.2,0-0.2,0-0.3,0L19,0.2c-0.8-0.2-1.4,0.3-1.6,1l1.1,6.7c0.1,0.5-0.2,0.9-0.7,0.9c0,0-0.1,0-0.1,0
				c-0.4,0-0.7-0.3-0.8-0.7L16,2.4l-3.2-0.2c-0.7,0-1.3,0.5-1.5,1.2c0,0.2,0,0.5,0.2,0.7l2.4,6.6c1.4,0.6,4.5,1.7,6.7,0.9
				c0.4-0.2,0.9,0.1,1.1,0.5c0.2,0.4-0.1,0.9-0.5,1.1c-0.8,0.3-1.6,0.4-2.4,0.4c-2.2,0-4.4-0.8-5.5-1.3c-1.7,1-3.2,2.4-4.3,4.1
				c-1.7,2.3-2.5,5.1-2.5,8.1v8.9C5,34.7,5,37.2,5,38.5C5,39.3,5.7,40,6.5,40h27.8c0.8,0,1.5-0.7,1.5-1.5
				C35.7,37.5,35.7,35.9,35,34.4z M25.5,32.4c-0.3,0.3-1.2,0.7-2.3,1c-2.1,0.7-4,0.7-5.5-0.2c-1.5-0.8-2.6-2.3-3.3-4.3
				c-0.7-2.1-0.7-4,0-5.6c0.7-1.5,2-2.6,4-3.1c1.8-0.5,3.5-0.5,4.8,0.2c1.3,0.7,2.3,2,2.8,3.8l0.5,1.7l-8.4,2.6
				c0.3,1,0.8,1.7,1.7,2.1c0.8,0.5,1.7,0.5,2.6,0.2c0.8-0.2,1.5-0.5,2.1-1c0.7-0.5,1.3-0.8,2-1.5l0.8,2.8
				C26.8,31.6,26.2,32.1,25.5,32.4z"/>
		</g>
	</g>
</g>
<g id="tekst">
</g>
</svg>
