<?xml version="1.0" encoding="utf-8"?>
<!-- Generator: Adobe Illustrator 18.0.0, SVG Export Plug-In . SVG Version: 6.00 Build 0)  -->
<!DOCTYPE svg PUBLIC "-//W3C//DTD SVG 1.1//EN" "http://www.w3.org/Graphics/SVG/1.1/DTD/svg11.dtd" [
	<!ENTITY ns_extend "http://ns.adobe.com/Extensibility/1.0/">
	<!ENTITY ns_ai "http://ns.adobe.com/AdobeIllustrator/10.0/">
	<!ENTITY ns_graphs "http://ns.adobe.com/Graphs/1.0/">
	<!ENTITY ns_vars "http://ns.adobe.com/Variables/1.0/">
	<!ENTITY ns_imrep "http://ns.adobe.com/ImageReplacement/1.0/">
	<!ENTITY ns_sfw "http://ns.adobe.com/SaveForWeb/1.0/">
	<!ENTITY ns_custom "http://ns.adobe.com/GenericCustomNamespace/1.0/">
	<!ENTITY ns_adobe_xpath "http://ns.adobe.com/XPath/1.0/">
]>
<svg version="1.1" id="Lag_1" xmlns:x="&ns_extend;" xmlns:i="&ns_ai;" xmlns:graph="&ns_graphs;"
	 xmlns="http://www.w3.org/2000/svg" xmlns:xlink="http://www.w3.org/1999/xlink" x="0px" y="0px" width="40px" height="40px"
	 viewBox="0 0 40 40" enable-background="new 0 0 40 40" xml:space="preserve">
<metadata>
	<sfw  xmlns="&ns_sfw;">
		<slices></slices>
		<sliceSourceBounds  width="39.3" height="34.5" x="619.2" y="383" bottomLeftOrigin="true"></sliceSourceBounds>
	</sfw>
</metadata>
<g id="Lag_1_1_">
	<g id="market_x5F_research_3_">
		<path d="M16.5,25.7c1.1,0.7,2.3,0.9,3.5,0.9c1.4,0,2.6-0.4,3.7-0.9c-1.2-0.4-1.5-0.8-1.4-1.4c0.7-0.7,0.9-2,1.1-2.7
			c0.5-0.3,0.7-0.8,0.8-1.4c0.1-0.5,0-0.5-0.1-0.5H24c0-0.1,0.1-0.5,0-0.8c0.3-2.6-1.5-3.3-2-3.3c-0.5-0.4-2-1.1-3.9-0.4
			c-2.6,0.9-1.9,4.1-1.9,4.1c0,0.3,0,0.4,0,0.5h-0.1c-0.3,0-0.3,0.1-0.3,0.5s0.4,1.1,0.8,1.4c0.3,1.2,0.8,2.4,1.2,2.7
			C18,25.2,17.6,25.4,16.5,25.7z"/>
		<path d="M26.4,30.9c-0.5-0.5-0.8-1.2-0.8-1.9c0,0,0-0.1-0.1-0.1c-1.6,0.9-3.5,1.5-5.4,1.5c-2.8,0-5.4-1.1-7.5-3
			c-0.3,0.3-0.4,0.4-0.5,0.7c-0.4,0.5-0.3,2.6-0.1,2.8c0.1,0.3,3.3,2.2,8.3,2.2c3.3,0,5.7-0.8,7-1.4L26.4,30.9z"/>
		<path d="M11.2,10.2c0.1,0.8,0.5,1.6,0.8,2.2c0.1-0.1,0.3-0.3,0.4-0.4c1.6-1.6,3.8-2.7,6.2-3.1V8.8c0.1-0.5,0-0.5-0.1-0.5h-0.1
			c0-0.1,0.1-0.5,0-0.8c0.3-2.6-1.5-3.3-2-3.3c-0.5-0.4-2-1.1-3.9-0.4c-2.6,0.9-1.9,4.1-1.9,4.1c0,0.3,0,0.4,0,0.5h-0.1
			c-0.3,0-0.3,0.1-0.3,0.5C10.4,9.3,10.7,10,11.2,10.2z"/>
		<path d="M10.8,31.5c-0.1-0.1-0.4-0.5-0.4-2c0-0.9,0.1-1.8,0.4-2.2c0.3-0.3,0.4-0.7,0.8-0.9c-2.7-3.3-3.1-7.7-1.5-11.4
			c-0.7-0.3-1.9-0.7-3.3-0.1c-2.5,0.9-1.8,4-1.8,4c0,0.3,0,0.4,0,0.5H4.8c-0.3,0-0.3,0.1-0.3,0.5s0.4,1.1,0.8,1.4
			c0.3,1.2,0.8,2.4,1.2,2.7c0,1.1-0.7,1.2-2.7,1.8s-2.7,1.2-3.3,2c-0.4,0.5-0.3,2.6-0.1,2.8c0.1,0.3,3.3,2.2,8.3,2.2
			c1.4,0,2.6-0.1,3.5-0.3C11.9,32.3,11.1,31.9,10.8,31.5z"/>
		<path d="M21.4,8.9c2.3,0.3,4.6,1.4,6.2,3.1c0.1,0.1,0.3,0.3,0.4,0.5c0.4-0.7,0.7-1.8,0.7-2.3c0.5-0.3,0.7-0.8,0.8-1.4
			s0-0.5-0.1-0.5h-0.1c0-0.1,0.1-0.5,0-0.8c0.3-2.6-1.5-3.3-2-3.3c-0.5-0.4-2-1.1-3.9-0.4c-2.6,0.9-1.9,4.1-1.9,4.1
			c0,0.3,0,0.4,0,0.5h-0.1C21.2,8.2,21.2,8.4,21.4,8.9L21.4,8.9z"/>
		<path d="M29.5,24.8c0,0,0.1,0,0.1,0.1c0.8,0,1.5,0.3,2,0.8l6.1,6.1c0.9-0.4,1.5-0.7,1.6-0.8c0.3-0.4,0.4-2.2,0-2.8
			c-0.4-0.8-1.2-1.6-3.5-2c-2.3-0.5-2.6-0.9-2.4-1.6c0.7-0.7,0.9-2,1.1-2.7c0.5-0.3,0.7-0.8,0.8-1.4s0-0.5-0.1-0.5h-0.1
			c0-0.1,0.1-0.5,0-0.8c0.3-2.6-1.5-3.3-2-3.3c-0.5-0.4-1.8-0.9-3.3-0.5C31.1,18,31.1,21.6,29.5,24.8z"/>
		<path d="M26.6,12.8c-3.7-3.7-9.8-3.7-13.4,0s-3.7,9.8,0,13.4s9.8,3.7,13.4,0S30.4,16.6,26.6,12.8z M25.8,25.4
			c-1.6,1.6-3.7,2.4-5.8,2.4c-2.2,0-4.3-0.8-5.8-2.4c-3.3-3.3-3.3-8.5,0-11.8c1.6-1.6,3.7-2.4,5.8-2.4s4.3,0.8,5.8,2.4
			C29.1,17,29.1,22.3,25.8,25.4z"/>
		<path d="M37.9,33.8l-7.2-7.2c-0.4-0.4-1.1-0.5-1.6-0.4c0-0.1,0-0.1-0.1-0.1c-0.1-0.1-0.4-0.1-0.7,0l-1.8,1.8
			c-0.1,0.1-0.1,0.4,0,0.7c0,0,0.1,0.1,0.3,0.1c-0.1,0.5,0,1.1,0.4,1.6l7.2,7.2c0.7,0.7,1.8,0.7,2.3,0l1.1-1.1
			C38.6,35.5,38.6,34.4,37.9,33.8z"/>
	</g>
</g>
</svg>
