<?xml version="1.0" encoding="utf-8"?>
<svg version="1.1"  xmlns="http://www.w3.org/2000/svg" xmlns:xlink="http://www.w3.org/1999/xlink" x="0px" y="0px" width="40px" height="40px"
	 viewBox="0 0 40 40" enable-background="new 0 0 40 40" xml:space="preserve">
<g id="Lag_1">
	<g id="market_x5F_research_2_">
		<path fill="#FFFFFF" d="M16.4,26.1c1.1,0.7,2.3,1,3.6,1c1.4,0,2.6-0.4,3.7-1c-1.2-0.4-1.5-0.8-1.4-1.4c0.7-0.7,1-2.1,1.1-2.8
			c0.6-0.3,0.7-0.8,0.8-1.4c0.1-0.6,0-0.6-0.1-0.6H24c0-0.1,0.1-0.6,0-0.8c0.3-2.6-1.5-3.3-2.1-3.3c-0.6-0.4-2.1-1.1-4-0.4
			c-2.6,1-1.9,4.1-1.9,4.1c0,0.3,0,0.4,0,0.6h-0.1c-0.3,0-0.3,0.1-0.3,0.6s0.4,1.1,0.8,1.4c0.3,1.2,0.8,2.5,1.2,2.8
			C18,25.5,17.5,25.8,16.4,26.1z"/>
		<path fill="#FFFFFF" d="M26.5,31.3c-0.6-0.6-0.8-1.2-0.8-1.9c0,0,0-0.1-0.1-0.1c-1.7,1-3.6,1.5-5.5,1.5c-2.9,0-5.5-1.1-7.6-3
			c-0.3,0.3-0.4,0.4-0.6,0.7c-0.4,0.6-0.3,2.6-0.1,2.9c0.1,0.3,3.3,2.2,8.4,2.2c3.3,0,5.8-0.8,7.2-1.4L26.5,31.3z"/>
		<path fill="#FFFFFF" d="M11.1,10.3c0.1,0.8,0.6,1.7,0.8,2.2c0.1-0.1,0.3-0.3,0.4-0.4c1.7-1.7,3.9-2.8,6.4-3.2V8.8
			c0.1-0.6,0-0.6-0.1-0.6h-0.1c0-0.1,0.1-0.6,0-0.8c0.3-2.6-1.5-3.3-2.1-3.3c-0.6-0.4-2.1-1.1-4-0.4c-2.6,1-1.9,4.1-1.9,4.1
			c0,0.3,0,0.4,0,0.6h-0.1C9.9,8.4,9.9,8.5,9.9,9C10.2,9.4,10.5,10.1,11.1,10.3z"/>
		<path fill="#FFFFFF" d="M10.6,32c-0.1-0.1-0.4-0.6-0.4-2.1c0-1,0.1-1.8,0.4-2.2c0.3-0.3,0.4-0.7,0.8-1c-2.8-3.3-3.2-7.9-1.5-11.6
			C9.3,14.9,8,14.5,6.6,15c-2.6,1-1.9,4.1-1.9,4.1c0,0.3,0,0.4,0,0.6H4.6c-0.3,0-0.3,0.1-0.3,0.6s0.4,1.1,0.8,1.4
			c0.3,1.2,0.8,2.5,1.2,2.8c0,1.1-0.7,1.2-2.8,1.8c-2.1,0.6-2.8,1.2-3.3,2.1c-0.4,0.6-0.3,2.6-0.1,2.9c0.1,0.3,3.3,2.2,8.4,2.2
			c1.4,0,2.6-0.1,3.6-0.3C11.7,32.8,10.9,32.4,10.6,32z"/>
		<path fill="#FFFFFF" d="M21.4,9c2.3,0.3,4.7,1.4,6.4,3.2c0.1,0.1,0.3,0.3,0.4,0.6c0.4-0.7,0.7-1.8,0.7-2.3
			c0.6-0.3,0.7-0.8,0.8-1.4s0-0.6-0.1-0.6h-0.1c0-0.1,0.1-0.6,0-0.8c0.3-2.6-1.5-3.3-2.1-3.3c-0.6-0.4-2.1-1.1-4-0.4
			c-2.6,1-1.9,4.1-1.9,4.1c0,0.3,0,0.4,0,0.6h-0.1C21.3,8.3,21.3,8.4,21.4,9L21.4,9z"/>
		<path fill="#FFFFFF" d="M29.7,25.1c0,0,0.1,0,0.1,0.1c0.8,0,1.5,0.3,2.1,0.8l6.2,6.2c1-0.4,1.5-0.7,1.7-0.8c0.3-0.4,0.4-2.2,0-2.9
			c-0.4-0.8-1.2-1.7-3.6-2.1c-2.3-0.6-2.6-1-2.5-1.7c0.7-0.7,1-2.1,1.1-2.8c0.6-0.3,0.7-0.8,0.8-1.4c0.1-0.6,0-0.6-0.1-0.6h-0.1
			c0-0.1,0.1-0.6,0-0.8c0.3-2.6-1.5-3.3-2.1-3.3c-0.6-0.4-1.8-1-3.3-0.6C31.4,18.2,31.4,21.9,29.7,25.1z"/>
		<path fill="#FFFFFF" d="M26.8,13c-3.7-3.7-9.9-3.7-13.7,0s-3.7,9.9,0,13.7s9.9,3.7,13.7,0S30.7,16.8,26.8,13z M26,25.8
			c-1.7,1.7-3.7,2.5-5.9,2.5c-2.2,0-4.4-0.8-5.9-2.5c-3.3-3.3-3.3-8.7,0-12c1.7-1.7,3.7-2.5,5.9-2.5s4.4,0.8,5.9,2.5
			C29.3,17.2,29.3,22.6,26,25.8z"/>
		<path fill="#FFFFFF" d="M38.3,34.4L30.9,27c-0.4-0.4-1.1-0.6-1.7-0.4c0-0.1,0-0.1-0.1-0.1c-0.1-0.1-0.4-0.1-0.7,0l-1.8,1.8
			c-0.1,0.1-0.1,0.4,0,0.7c0,0,0.1,0.1,0.3,0.1c-0.1,0.6,0,1.1,0.4,1.7l7.3,7.3c0.7,0.7,1.8,0.7,2.3,0l1.1-1.1
			C38.9,36,38.9,34.9,38.3,34.4z"/>
	</g>
</g>
<g id="tekst">
</g>
</svg>
