<?xml version="1.0" encoding="utf-8"?>
<svg version="1.1"  xmlns="http://www.w3.org/2000/svg" xmlns:xlink="http://www.w3.org/1999/xlink" x="0px" y="0px" width="40px" height="40px"
	 viewBox="0 0 40 40" enable-background="new 0 0 40 40" xml:space="preserve">
<g id="Lag_1">
	<g>
		<path fill-rule="evenodd" clip-rule="evenodd" fill="#FFFFFF" d="M30.1,0.5H10.3c-1.4,0-2.6,1.2-2.6,2.6v23.6
			c0,1.4,1.2,2.6,2.6,2.6h19.8c1.4,0,2.6-1.2,2.6-2.6V3.1C32.8,1.7,31.6,0.5,30.1,0.5z M20.2,27.8c-2.1,0-3.9-1.7-3.9-3.9
			c0-2.1,1.7-3.9,3.9-3.9c2.1,0,3.9,1.7,3.9,3.9C24.1,26,22.4,27.8,20.2,27.8z"/>
	</g>
	<g>
		<path fill-rule="evenodd" clip-rule="evenodd" fill="#FFFFFF" d="M20.7,23.2c0.2,0.1,0.4,0.3,0.5,0.6c0.2,0.6-0.1,1.2-0.6,1.4
			c-0.6,0.2-1.2-0.1-1.4-0.6c-0.1-0.3-0.1-0.5,0-0.8l-0.3-3.1L20.7,23.2L20.7,23.2z"/>
	</g>
	<path fill-rule="evenodd" clip-rule="evenodd" fill="#FFFFFF" d="M30.1,33.8c0-2.2,0-1.5,0-3.7H10.4v3.7c2,0.7,4,1.1,6.1,1.3v2.1
		h-0.4c-0.1,0-0.2,0.1-0.2,0.2v1.1c0,0.1,0.1,0.2,0.2,0.2h2.6c0.1,0,0.2-0.1,0.2-0.2v-1.1c0-0.1-0.1-0.2-0.2-0.2h-0.4v-1.9
		c1.2,0.1,2.5,0.1,3.7,0v2.9h-0.4c-0.1,0-0.2,0.1-0.2,0.2v1.1c0,0.1,0.1,0.2,0.2,0.2h2.6c0.1,0,0.2-0.1,0.2-0.2v-1.1
		c0-0.1-0.1-0.2-0.2-0.2H24v-3.1C26.1,34.8,28.1,34.4,30.1,33.8z M20.2,33.8c-0.6,0-1.2-0.5-1.2-1.2c0-0.6,0.5-1.2,1.2-1.2
		c0.6,0,1.2,0.5,1.2,1.2C21.4,33.3,20.9,33.8,20.2,33.8z"/>
</g>
<g id="tekst">
</g>
</svg>
