<?xml version="1.0" encoding="utf-8"?>
<svg version="1.1"  xmlns="http://www.w3.org/2000/svg" xmlns:xlink="http://www.w3.org/1999/xlink" x="0px" y="0px" width="40px" height="40px"
	 viewBox="0 0 40 40" enable-background="new 0 0 40 40" xml:space="preserve">
<g id="Lag_1">
	<g>
		<g>
			<path fill="#FFFFFF" d="M7.3,16.7l4.7-3.3l9.7-6.8l14.4,10.1c0.6,0.5,1.4,0.3,1.9-0.3s0.3-1.5-0.3-1.9L22.5,3.9
				c-0.5-0.3-1.1-0.3-1.6,0l-10.5,7.4l-4.7,3.2c-0.6,0.5-0.7,1.3-0.3,1.9C5.9,17,6.7,17.1,7.3,16.7z M2.9,22.7h1.2v5.5h1.3
				c0-0.8,0.1-1.5,0.3-2.3c0,0,0,0,0,0v-3.2h1.2v0.6c0.5-0.8,1.2-1.5,2-2.1c0,0,0-0.1,0.1-0.1H8.4v-1.2c0-0.4-0.4-0.8-0.8-0.8
				c-0.4,0-0.8,0.4-0.8,0.8V21H5.7v-1.2c0-0.4-0.4-0.8-0.8-0.8l0,0l0,0c-0.4,0-0.8,0.4-0.8,0.8V21H2.9v-1.2c0-0.4-0.4-0.8-0.8-0.8
				c-0.4,0-0.8,0.4-0.8,0.8v8.3h1.6V22.7z M14,5h-3.5v5.1L14,7.7V5z M39.2,19.2c-0.4,0-0.8,0.4-0.8,0.8v1.2h-1.2v-1.2
				c0-0.4-0.4-0.8-0.8-0.8s-0.8,0.4-0.8,0.8v1.2h-1.2V17L21.7,8.3L9.1,17v4c2.1-1.5,4.9-2.1,7.6-1.4c0.5,0.1,1,0.3,1.5,0.5v-4.3h7.2
				v12.4h8.3c0.4,0,0.8-0.4,0.8-0.8v-4.7h1.2v5.5h1.6v-5.5h1.2v5.6H40v-8.3C40,19.5,39.6,19.2,39.2,19.2z M14.5,32.1
				c-0.5,0.1-1-0.1-1.5-0.2c-0.5-0.1-0.9-0.4-1.2-0.7c-0.4-0.3-0.7-0.7-0.9-1.2c-0.2-0.5-0.4-0.9-0.3-1.4c-0.1-0.5,0.1-1,0.2-1.5
				c0.1-0.2,0-0.4-0.2-0.5c-0.2-0.1-0.4,0-0.5,0.2c-0.2,0.6-0.3,1.1-0.3,1.8c0.1,0.5,0.2,1.1,0.5,1.7s0.7,1,1,1.4s0.9,0.7,1.5,0.9
				c0.6,0.2,1.1,0.3,1.8,0.3c0.5,0,1-0.1,1.6-0.4c0.1-0.1,0.2-0.3,0.1-0.5c-0.1-0.1-0.3-0.2-0.5-0.1C15.4,32,15,32.1,14.5,32.1z
				 M16.8,21.2c-1.8-0.7-3.9-0.6-5.8,0.3S7.7,24,7.1,25.7c-0.5,1.5-0.6,3.2-0.1,4.9l-0.4,0.2c-0.3-0.4-0.6-0.6-0.8-0.4L0.2,33
				C-0.1,33.1,0,34,0.3,34.9c0.4,0.8,1,1.5,1.3,1.3l5.8-2.7c0.2,0,0.2-0.4,0.1-0.9l0.4-0.2c0.9,1.5,2.3,2.4,3.8,3
				c1.8,0.7,3.9,0.6,5.8-0.3c1.9-0.9,3.3-2.5,3.9-4.2c0.7-1.8,0.6-3.9-0.3-5.8S18.6,21.8,16.8,21.2z M19.6,30.2
				c-0.4,1.3-1.5,2.5-2.9,3.1c-1.4,0.6-2.9,0.6-4.2,0.2C11.2,33,10,32,9.4,30.6c-0.6-1.4-0.6-2.9-0.2-4.2c0.4-1.3,1.5-2.5,2.9-3.1
				c1.3-0.7,2.8-0.8,4.2-0.2c1.3,0.4,2.5,1.5,3.1,2.9C20,27.3,20,28.9,19.6,30.2z"/>
		</g>
	</g>
</g>
<g id="tekst">
</g>
</svg>
