<?xml version="1.0" encoding="utf-8"?>
<!-- Generator: Adobe Illustrator 18.0.0, SVG Export Plug-In . SVG Version: 6.00 Build 0)  -->
<!DOCTYPE svg PUBLIC "-//W3C//DTD SVG 1.1//EN" "http://www.w3.org/Graphics/SVG/1.1/DTD/svg11.dtd" [
	<!ENTITY ns_extend "http://ns.adobe.com/Extensibility/1.0/">
	<!ENTITY ns_ai "http://ns.adobe.com/AdobeIllustrator/10.0/">
	<!ENTITY ns_graphs "http://ns.adobe.com/Graphs/1.0/">
	<!ENTITY ns_vars "http://ns.adobe.com/Variables/1.0/">
	<!ENTITY ns_imrep "http://ns.adobe.com/ImageReplacement/1.0/">
	<!ENTITY ns_sfw "http://ns.adobe.com/SaveForWeb/1.0/">
	<!ENTITY ns_custom "http://ns.adobe.com/GenericCustomNamespace/1.0/">
	<!ENTITY ns_adobe_xpath "http://ns.adobe.com/XPath/1.0/">
]>
<svg version="1.1" id="Lag_1" xmlns:x="&ns_extend;" xmlns:i="&ns_ai;" xmlns:graph="&ns_graphs;"
	 xmlns="http://www.w3.org/2000/svg" xmlns:xlink="http://www.w3.org/1999/xlink" x="0px" y="0px" width="40px" height="40px"
	 viewBox="0 0 40 40" enable-background="new 0 0 40 40" xml:space="preserve">
<metadata>
	<sfw  xmlns="&ns_sfw;">
		<slices></slices>
		<sliceSourceBounds  width="38.9" height="38.5" y="261.5" x="-529.3" bottomLeftOrigin="true"></sliceSourceBounds>
	</sfw>
</metadata>
<g>
	<g>
		<path d="M29.1,27.8l-3.6,2c-0.8,0.5-1.1,1.5-0.7,2.1c0.5,0.8,1.5,1.1,2.1,0.7l7.2-3.8c0.8-0.5,1.1-1.5,0.7-2.1l-3.8-7.2
			c-0.5-0.8-1.5-1.1-2.1-0.7c-0.8,0.5-1.1,1.5-0.7,2.1l2,3.8c-12.1-6.9-19.8-17.9-20-18C9.7,6,8.7,5.8,7.9,6.3
			C7.3,6.8,7.1,7.8,7.6,8.6C7.9,9.1,16.1,20.6,29.1,27.8z M38.1,36.2h-2.8c0-0.8-0.6-1.4-1.4-1.4s-1.4,0.6-1.4,1.4h-8.9
			c0-0.8-0.6-1.4-1.4-1.4s-1.4,0.6-1.4,1.4H12c0-0.8-0.6-1.4-1.4-1.4s-1.4,0.6-1.4,1.4H3.5v-5.9h0.1c0.8,0,1.4-0.6,1.4-1.4
			s-0.6-1.4-1.4-1.4H3.5v-8.9h0.1C4.3,18.6,5,18,5,17.2c0-0.8-0.6-1.4-1.4-1.4H3.5V7h0.1C4.3,7,5,6.3,5,5.6S4.3,4.2,3.6,4.2H3.5V1.9
			c0-0.8-0.6-1.4-1.4-1.4S0.7,1.1,0.7,1.9v35.7c0,0.8,0.6,1.4,1.4,1.4h8.4c0.1,0,0.1,0,0.2,0c0.1,0,0.1,0,0.2,0h11.3
			c0.1,0,0.1,0,0.2,0c0.1,0,0.1,0,0.2,0h11.3c0.1,0,0.1,0,0.2,0s0.1,0,0.2,0h4c0.8,0,1.4-0.6,1.4-1.4C39.5,36.8,38.9,36.2,38.1,36.2
			z"/>
	</g>
</g>
</svg>
