<?xml version="1.0" encoding="utf-8"?>
<!-- Generator: Adobe Illustrator 19.0.0, SVG Export Plug-In . SVG Version: 6.00 Build 0)  -->
<!DOCTYPE svg PUBLIC "-//W3C//DTD SVG 1.1//EN" "http://www.w3.org/Graphics/SVG/1.1/DTD/svg11.dtd" [
	<!ENTITY ns_extend "http://ns.adobe.com/Extensibility/1.0/">
	<!ENTITY ns_ai "http://ns.adobe.com/AdobeIllustrator/10.0/">
	<!ENTITY ns_graphs "http://ns.adobe.com/Graphs/1.0/">
	<!ENTITY ns_vars "http://ns.adobe.com/Variables/1.0/">
	<!ENTITY ns_imrep "http://ns.adobe.com/ImageReplacement/1.0/">
	<!ENTITY ns_sfw "http://ns.adobe.com/SaveForWeb/1.0/">
	<!ENTITY ns_custom "http://ns.adobe.com/GenericCustomNamespace/1.0/">
	<!ENTITY ns_adobe_xpath "http://ns.adobe.com/XPath/1.0/">
]>
<svg version="1.1" xmlns:x="&ns_extend;" xmlns:i="&ns_ai;" xmlns:graph="&ns_graphs;" xmlns="http://www.w3.org/2000/svg" xmlns:xlink="http://www.w3.org/1999/xlink" x="0px" y="0px" width="49px" height="27px" viewBox="0 0 27 49" enable-background="new 0 0 27 49" xml:space="preserve">
<style type="text/css">
	.st0{fill:#FFFFFF;}
</style>
<g id="Lag_1">
</g>
<g id="Lag_2">
	<g id="XMLID_5_">
		<g id="XMLID_2_">
			<g id="XMLID_21_">
				<path id="XMLID_25_" class="st0" d="M22.7,0.7c-7.3,7.3-14.7,14.7-22,22C-1.5,25,2,28.6,4.3,26.3c7.3-7.3,14.7-14.7,22-22
					C28.5,2,25-1.5,22.7,0.7L22.7,0.7z"/>
			</g>
		</g>
		<g id="XMLID_3_">
			<g id="XMLID_16_">
				<path id="XMLID_20_" class="st0" d="M0.7,26.3c7.3,7.3,14.7,14.7,22,22c2.3,2.3,5.8-1.3,3.5-3.5c-7.3-7.3-14.7-14.7-22-22
					C2,20.5-1.5,24,0.7,26.3L0.7,26.3z"/>
			</g>
		</g>
	</g>
</g>
</svg>
