<?xml version="1.0" encoding="utf-8"?>
<!-- Generator: Adobe Illustrator 18.0.0, SVG Export Plug-In . SVG Version: 6.00 Build 0)  -->
<!DOCTYPE svg PUBLIC "-//W3C//DTD SVG 1.1//EN" "http://www.w3.org/Graphics/SVG/1.1/DTD/svg11.dtd" [
	<!ENTITY ns_extend "http://ns.adobe.com/Extensibility/1.0/">
	<!ENTITY ns_ai "http://ns.adobe.com/AdobeIllustrator/10.0/">
	<!ENTITY ns_graphs "http://ns.adobe.com/Graphs/1.0/">
	<!ENTITY ns_vars "http://ns.adobe.com/Variables/1.0/">
	<!ENTITY ns_imrep "http://ns.adobe.com/ImageReplacement/1.0/">
	<!ENTITY ns_sfw "http://ns.adobe.com/SaveForWeb/1.0/">
	<!ENTITY ns_custom "http://ns.adobe.com/GenericCustomNamespace/1.0/">
	<!ENTITY ns_adobe_xpath "http://ns.adobe.com/XPath/1.0/">
]>
<svg version="1.1" id="Lag_1" xmlns:x="&ns_extend;" xmlns:i="&ns_ai;" xmlns:graph="&ns_graphs;"
	 xmlns="http://www.w3.org/2000/svg" xmlns:xlink="http://www.w3.org/1999/xlink" x="0px" y="0px" width="30.9px" height="30.8px"
	 viewBox="0 0 30.9 30.8" enable-background="new 0 0 30.9 30.8" xml:space="preserve">
<metadata>
	<sfw  xmlns="&ns_sfw;">
		<slices></slices>
		<sliceSourceBounds  height="29" width="29" y="-1294.6" x="466" bottomLeftOrigin="true"></sliceSourceBounds>
	</sfw>
</metadata>
<g>
	<path fill="#FFFFFF" d="M19.1,1.2l-0.7,2.6c5.1,1.3,8.8,6,8.8,11.5c0,6.5-5.3,11.8-11.8,11.8c0,0,0,0,0,0v2.7l0,0
		c8,0,14.5-6.5,14.5-14.5C29.9,8.5,25.3,2.8,19.1,1.2z"/>
	<path opacity="0.8" fill="#FFFFFF" d="M15.4,3.4c0.3,0,0.5,0,0.8,0l0.2-2.6c-0.3,0-0.7,0-1,0c-0.6,0-1.1,0-1.7,0.1L14,3.5
		C14.5,3.4,15,3.4,15.4,3.4z"/>
	<path opacity="0.9" fill="#FFFFFF" d="M18.4,3.8l0.7-2.6c-0.9-0.2-1.8-0.4-2.7-0.4l-0.2,2.6C17,3.5,17.7,3.6,18.4,3.8z"/>
	<path opacity="0.3" fill="#FFFFFF" d="M3.6,15.2H0.9c0,4.8,2.3,9.1,5.9,11.7l1.6-2.2C5.5,22.6,3.6,19.1,3.6,15.2z"/>
	<path opacity="0.2" fill="#FFFFFF" d="M8.4,24.8l-1.6,2.2c2.4,1.8,5.4,2.8,8.6,2.8v-2.7C12.8,27.1,10.4,26.2,8.4,24.8z"/>
	<path opacity="0.4" fill="#FFFFFF" d="M3.6,15.2c0-1.3,0.2-2.6,0.6-3.7l-2.5-0.8c-0.5,1.4-0.7,3-0.7,4.6L3.6,15.2
		C3.6,15.2,3.6,15.2,3.6,15.2z"/>
	<path opacity="0.7" fill="#FFFFFF" d="M14,3.5l-0.3-2.6c-0.9,0.1-1.8,0.3-2.7,0.6l0.8,2.5C12.5,3.7,13.3,3.5,14,3.5z"/>
	<path opacity="0.6" fill="#FFFFFF" d="M11.8,3.9L11,1.4C9.1,2,7.4,3,5.9,4.3l1.7,2C8.9,5.2,10.3,4.4,11.8,3.9z"/>
	<path opacity="0.5" fill="#FFFFFF" d="M7.7,6.3l-1.7-2C4,6,2.5,8.1,1.7,10.6l2.5,0.8C4.9,9.4,6.1,7.6,7.7,6.3z"/>
</g>
<g>
	<path fill="#FFFFFF" d="M20.8,14c0,0.3,0,0.8-0.6,1.2c-0.4,0.4-0.8,0.4-0.7,0.8c0,0.2,0,0.9-0.5,1c-0.2,0.1-0.3,0.6-0.1,0.8
		c0.1,0.1,0.3,0.2,0.6,0.1c0.2,0,0.4-0.4,0.2-0.7c-0.2-0.3-0.1-1,0.3-1.1c0.3-0.1,0.5,0,1.1-0.6C21.6,15,21.7,14,20.8,14 M9.8,15.6
		c0.5,0.6,0.8,0.5,1.1,0.6c0.4,0.1,0.5,0.8,0.3,1.1c-0.2,0.3,0,0.7,0.2,0.7c0.3,0,0.5,0,0.6-0.1c0.2-0.1,0.2-0.7-0.1-0.8
		c-0.5-0.1-0.5-0.8-0.5-1c0.1-0.4-0.3-0.5-0.7-0.8c-0.6-0.5-0.6-1-0.6-1.2C9.1,14,9.2,15,9.8,15.6z M14.9,13.8
		c-1.4,0.1-2.4-0.6-2.9-0.7c-0.2,0-0.5,0-0.6,0.4c0,0-0.1,0.5,0,0.8c0.2,0.7,0.8,1.2,1.2,1.3c0.7,0.2,0.6,0.9,0.4,1.1
		c-0.1,0.1-0.5,0.8,0.6,0.8c0.7,0,1-0.8,0.4-0.9c-0.3-0.1-0.6-0.9,0-1.3c0.4-0.3,0.7-0.5,0.8-0.9C14.9,14.4,14.9,13.8,14.9,13.8z
		 M16,14.5c0.1,0.4,0.4,0.7,0.8,0.9c0.6,0.4,0.3,1.2,0,1.3c-0.7,0.1-0.3,0.9,0.4,0.9c1.1,0,0.7-0.7,0.6-0.8
		c-0.2-0.3-0.3-0.9,0.4-1.1c0.4-0.1,1.1-0.6,1.2-1.3c0.1-0.4,0-0.8,0-0.8c-0.1-0.4-0.4-0.5-0.6-0.4c-0.5,0-1.5,0.8-2.9,0.7
		C15.9,13.8,15.9,14.3,16,14.5z M15.4,20.9c-3.9,0-4.8-1.5-4.8-1.5c0-2.5-0.8-2.8-1.5-3.3c-1.8-1.2-0.8-3.6,1.2-3
		c0.5-1.1,2-1.4,3.2-0.5c0.2,0.2,0.7,0.5,1.4,0.6c0.2,0,0.2-0.1,0.2-0.2c-0.5-0.2-0.9-0.6-0.9-1.2c0-0.6,0.4-1.2,1-1.3v-0.2
		c0-0.2-0.2-0.2-0.2-0.2h-0.3c-0.1,0.2-0.2,0.3-0.5,0.3c-0.3,0-0.5-0.3-0.5-0.6c0-0.3,0.2-0.6,0.5-0.6c0.3,0,0.4,0.1,0.5,0.3H15
		c0.2,0,0.2-0.1,0.2-0.3c-0.2-0.1-0.3-0.2-0.3-0.6c0-0.3,0.2-0.6,0.6-0.6c0.3,0,0.6,0.2,0.6,0.6c0,0.4-0.2,0.4-0.3,0.6
		c0,0.2,0,0.3,0.2,0.3h0.3c0.1-0.2,0.2-0.3,0.5-0.3c0.3,0,0.5,0.3,0.5,0.6c0,0.3-0.2,0.6-0.5,0.6c-0.3,0-0.4-0.1-0.5-0.3h-0.3
		c0,0-0.2,0-0.2,0.2v0.2c0.6,0.1,1,0.6,1,1.3c0,0.6-0.3,1-0.9,1.2c0,0.1,0,0.2,0.2,0.2c0.7-0.1,1.1-0.4,1.4-0.6
		c1.1-1,2.6-0.7,3.2,0.5c2-0.6,3,1.8,1.2,3c-0.7,0.5-1.5,0.8-1.5,3.3C20.3,19.4,19.3,20.9,15.4,20.9z"/>
</g>
</svg>
