<?xml version="1.0" encoding="utf-8"?>
<!-- Generator: Adobe Illustrator 19.0.0, SVG Export Plug-In . SVG Version: 6.00 Build 0)  -->
<!DOCTYPE svg PUBLIC "-//W3C//DTD SVG 1.1//EN" "http://www.w3.org/Graphics/SVG/1.1/DTD/svg11.dtd" [
	<!ENTITY ns_extend "http://ns.adobe.com/Extensibility/1.0/">
	<!ENTITY ns_ai "http://ns.adobe.com/AdobeIllustrator/10.0/">
	<!ENTITY ns_graphs "http://ns.adobe.com/Graphs/1.0/">
	<!ENTITY ns_vars "http://ns.adobe.com/Variables/1.0/">
	<!ENTITY ns_imrep "http://ns.adobe.com/ImageReplacement/1.0/">
	<!ENTITY ns_sfw "http://ns.adobe.com/SaveForWeb/1.0/">
	<!ENTITY ns_custom "http://ns.adobe.com/GenericCustomNamespace/1.0/">
	<!ENTITY ns_adobe_xpath "http://ns.adobe.com/XPath/1.0/">
]>
<svg version="1.1" id="Lag_1" xmlns:x="&ns_extend;" xmlns:i="&ns_ai;" xmlns:graph="&ns_graphs;"
	 xmlns="http://www.w3.org/2000/svg" xmlns:xlink="http://www.w3.org/1999/xlink" x="0px" y="0px" width="164.4px" height="48.2px"
	 viewBox="0 0 164.4 48.2" enable-background="new 0 0 164.4 48.2" xml:space="preserve">

<style type="text/css">
	.st0{fill:#FFFFFF;}
	.st1{fill:#E6E8EA;}
	.st2{fill:#F4F6F8;}
	.st3{fill:#798B95;}
	.st4{fill:#647A85;}
	.st5{fill:#8799A2;}
	.st6{fill:#C8D1D4;}
	.st7{fill:#B6C0C7;}
	.st8{fill:#9AABB2;}
</style>
<g>
	<g id="XMLID_9_">
		<g id="XMLID_19_">
			<path id="XMLID_20_" class="st0" d="M32.4,22.3c0,0.4,0,1.2-1,1.9c-0.8,0.5-1.3,0.6-1.2,1.3c0.1,0.2,0,1.4-0.8,1.5
				c-0.3,0.1-0.4,1-0.1,1.2c0.2,0.1,0.5,0.2,1,0.2c0.4,0,0.8-0.5,0.3-1.1c-0.3-0.5-0.1-1.6,0.5-1.7c0.4-0.1,0.8,0,1.6-0.9
				C33.7,23.9,33.9,22.2,32.4,22.3 M15.1,24.7c0.9,0.9,1.3,0.9,1.6,0.9c0.6,0.1,0.9,1.3,0.5,1.7c-0.3,0.5,0,1.1,0.3,1.1
				c0.4,0.1,0.9-0.1,1-0.2c0.3-0.2,0.2-1.2-0.1-1.2c-0.9-0.2-0.9-1.3-0.8-1.5c0.2-0.6-0.4-0.8-1.2-1.3c-1-0.8-1-1.5-1-1.9
				C14.1,22.2,14.2,23.9,15.1,24.7z M23.2,21.9c-2.2,0.2-3.8-1-4.5-1.1c-0.3,0-0.8,0.1-1,0.8c0,0-0.1,0.8,0,1.2
				c0.3,1.2,1.2,1.9,1.9,2.2c1.1,0.3,1,1.4,0.6,1.8c-0.1,0.2-0.9,1.3,1,1.3c1.1,0,1.6-1.2,0.5-1.4c-0.5-0.1-1-1.4,0-1.9
				c0.6-0.4,1.2-0.8,1.2-1.5C23.1,22.8,23.2,21.9,23.2,21.9z M24.8,23.2c0.2,0.8,0.6,1.1,1.2,1.5c1,0.6,0.5,1.8,0,1.9
				c-1,0.2-0.5,1.4,0.6,1.4c1.7,0,1.1-1.1,1-1.3c-0.3-0.4-0.4-1.5,0.6-1.8c0.8-0.2,1.6-1,1.9-2.2c0.2-0.6,0-1.2,0-1.2
				c-0.1-0.6-0.6-0.8-1-0.8c-0.8,0-2.4,1.2-4.5,1.1C24.7,21.9,24.7,22.6,24.8,23.2z M23.9,33.1c-6.1,0-7.6-2.3-7.6-2.3
				c0-3.9-1.3-4.4-2.4-5.2c-2.9-1.8-1.3-5.7,1.8-4.6c0.9-1.7,3.2-2.3,4.9-0.8c0.3,0.3,1.1,0.8,2.2,0.9c0.3,0,0.2-0.2,0.2-0.3
				c-0.9-0.2-1.4-1-1.4-1.8c0-1.1,0.6-1.9,1.6-2v-0.3c0-0.3-0.2-0.3-0.2-0.3h-0.4c-0.1,0.2-0.3,0.4-0.8,0.4s-0.9-0.4-0.9-1
				c0-0.5,0.3-1,0.9-1c0.4,0,0.6,0.2,0.8,0.4h0.5c0.3,0,0.3-0.1,0.3-0.4c-0.3-0.2-0.5-0.3-0.5-0.9c0-0.5,0.3-0.9,0.9-1
				c0.5,0,0.9,0.4,0.9,1s-0.2,0.8-0.5,0.9c0,0.3,0,0.4,0.3,0.4H25c0.2-0.2,0.3-0.4,0.8-0.4s0.9,0.4,0.9,1c0,0.4-0.3,0.9-0.9,1
				c-0.5,0-0.6-0.2-0.8-0.4h-0.4c0,0-0.2,0-0.2,0.3V17c1,0.1,1.6,1,1.6,2s-0.5,1.6-1.4,1.8c0,0.1,0,0.3,0.2,0.3
				c1.1-0.1,1.8-0.5,2.2-0.9c1.8-1.5,4.1-1.1,4.9,0.8c3.1-1,4.7,2.8,1.8,4.6c-1.1,0.8-2.4,1.3-2.4,5.2C31.6,30.8,30,33.1,23.9,33.1z
				"/>
		</g>
		<path id="XMLID_18_" class="st0" d="M29.8,2.1l-1.1,4.1c8.1,2.2,14,9.5,14,18.1C42.7,34.6,34.3,43,24,43l0,0v4.2l0,0
			c12.7,0,22.9-10.2,22.9-22.9C46.9,13.6,39.6,4.7,29.8,2.1z"/>
		<path id="XMLID_17_" class="st1" d="M24,5.4c0.4,0,0.9,0,1.3,0l0.3-4.2c-0.5,0-1.1-0.1-1.6-0.1c-0.9,0-1.8,0.1-2.7,0.1l0.5,4.2
			C22.5,5.5,23.2,5.4,24,5.4z"/>
		<path id="XMLID_16_" class="st2" d="M28.7,6l1.1-4c-1.4-0.3-2.8-0.6-4.3-0.6l-0.3,4.2C26.5,5.6,27.6,5.7,28.7,6z"/>
		<path id="XMLID_15_" class="st3" d="M5.3,24.2H1.1c0,7.6,3.7,14.3,9.4,18.5l2.5-3.4C8.3,35.9,5.3,30.4,5.3,24.2z"/>
		<path id="XMLID_14_" class="st4" d="M12.9,39.3l-2.5,3.4c3.8,2.8,8.5,4.4,13.6,4.4V43C19.8,43,16,41.6,12.9,39.3z"/>
		<path id="XMLID_13_" class="st5" d="M5.3,24.2c0-2,0.3-4.1,1-5.9l-4-1.3c-0.8,2.3-1.2,4.7-1.2,7.2H5.3L5.3,24.2z"/>
		<path id="XMLID_12_" class="st6" d="M21.7,5.6l-0.5-4.2c-1.5,0.2-2.9,0.4-4.2,0.9l1.3,4C19.5,5.9,20.5,5.7,21.7,5.6z"/>
		<path id="XMLID_11_" class="st7" d="M18.3,6.4l-1.3-4c-3,1-5.7,2.5-8.1,4.5l2.8,3.1C13.5,8.4,15.8,7.1,18.3,6.4z"/>
		<path id="XMLID_10_" class="st8" d="M11.7,10L8.9,6.9C5.8,9.6,3.5,13,2.1,17l4,1.3C7.3,15.1,9.1,12.2,11.7,10z"/>
	</g>
	<g id="XMLID_3_">
		<polygon id="XMLID_8_" class="st0" points="138,18.6 138,21 146.7,21 146.7,31.4 155.7,31.4 155.7,21 164.4,21 164.4,18.6 		"/>
		<path id="XMLID_7_" class="st0" d="M111.1,18.6h-4.5c0,0-8.4,5.3-8.5,5.4c-0.4,0.2-0.8,0.2-1.8,0.2v-5.6h-8.9v12.8h8.9v-4.8
			c1.3,0,1.4,0.1,1.8,0.5l4,4.4h10.4l-8.7-8.1L111.1,18.6z"/>
		<path id="XMLID_4_" class="st0" d="M131.4,18.6h-10.1l-7.5,12.8h3.8l1.7-2.9h8.6l1.7,2.9h9.4L131.4,18.6z M120.2,26.3l2.8-4.7
			c0.1-0.2,0.3-0.3,0.5-0.3s0.4,0.1,0.5,0.3l2.8,4.7C126.8,26.3,120.2,26.3,120.2,26.3z"/>
		<path id="XMLID_26_" class="st0" d="M67,18.2L67,18.2c0,0-0.5,0-0.6,0c-6.5,0.2-6.9,0.3-6.9,3.7v1c0,3.2,0.4,3.3,6.9,3.6
			c0.2,0,1.4,0,1.4,0c0.8,0,2.2,0,2.6,0c2.2,0,2.4,0.2,2.4,1.6c0,1.3-0.2,1.5-2.4,1.6c-0.5,0-2.2,0-2.9,0c-0.2,0-0.3,0-0.5,0l0,0
			c-1.9,0-7.5-0.3-7.5-0.2v2.2c0,0,9.8,0.5,15.1,0.3c0,0,0.3,0,0.5,0c6.6-0.2,6.9-0.3,6.9-3.7v-1c0-3.3-0.4-3.4-7.4-3.8
			c0,0-0.5,0-0.9,0c-0.8,0-0.9,0-1.5,0l0,0c-3.7,0-4,0-4.1-1.4c0,0,0-0.2,0-0.3c0-1.4,0.5-1.3,4.2-1.3h2.3c1.6,0,5.5,0.2,6.7,0.2
			v-2.2C79.5,18.4,71.8,18.1,67,18.2z"/>
	</g>
</g>
</svg>
